<svg width="644" height="551" viewBox="0 0 644 551" fill="none" xmlns="http://www.w3.org/2000/svg">
<path opacity="0.7" d="M144.418 173.315L357.879 508.91L572.193 173.315H144.418Z" stroke="#2B2B39" stroke-linecap="round" stroke-linejoin="round" stroke-dasharray="3 3"/>
<circle cx="541.635" cy="180.08" r="96.4193" fill="white"/>
<circle cx="541.635" cy="180.08" r="95.4193" stroke="#FFAF2E" stroke-opacity="0.6" stroke-width="2"/>
<mask id="mask0_1889_624" style="mask-type:alpha" maskUnits="userSpaceOnUse" x="366" y="49" width="278" height="272">
<path d="M638.055 180.08C638.055 126.829 594.887 49.4478 541.636 49.4478C492.163 49.4478 451.393 116.238 445.857 168.417C396.732 162.196 330.914 138.091 390.787 183.191C414.538 201.081 429.155 226.994 457.671 227.512C474.229 256.76 505.627 276.5 541.636 276.5C568.135 276.5 592.137 265.81 609.566 248.507L604.991 291.682C604.991 374.882 660.847 259.704 638.055 180.08Z" fill="#C4C4C4"/>
</mask>
<g mask="url(#mask0_1889_624)">
<path d="M537.097 127.95C511.151 148.646 513.796 192.648 512.229 216.599C511.128 233.354 507.68 257.365 505.49 271.107L554.103 278.265V194.024C554.103 165.944 556.057 131.434 563.717 124C558.382 123.409 553.67 123.561 550.441 124C547.88 123.98 544.673 124.412 541.163 125.832C539.619 126.748 538.484 127.158 537.097 127.95Z" fill="white"/>
<path opacity="0.5" d="M537.097 127.949C511.151 148.646 513.796 192.647 512.229 216.598C511.128 233.353 507.68 257.365 505.49 271.106C523.977 277.909 532.079 279.529 554.103 278.264V194.024C554.103 172.317 555.271 146.767 559.343 132.854C554.962 139.875 548.891 173.763 549.818 194.024C550.744 214.284 550.126 253.752 544.258 264.742C538.383 275.733 508.107 267.49 510.887 258.942C513.667 250.393 513.667 222.611 516.138 190.555C518.115 164.909 530.936 138.132 537.097 127.949Z" fill="#FFB83B"/>
<path d="M544.26 264.743C538.385 275.734 508.109 267.49 510.889 258.942C517.993 269.933 534.987 266.575 537.767 262.3C540.547 258.027 544.877 247.341 544.877 229.328C544.877 214.918 548.584 187.299 550.437 175.291C549.831 182 549.567 188.515 549.819 194.024C550.746 214.284 550.128 253.752 544.26 264.743Z" fill="#FFF9EF"/>
<path d="M516.137 190.556C517.687 170.518 525.847 149.787 532.283 136.823C528.65 144.659 521.456 164.911 521.703 183.228C521.95 201.546 516.424 224.444 513.627 233.603C514.284 221.575 514.902 206.601 516.137 190.556Z" fill="#FFF9EF"/>
<path d="M500.689 304.432L489.873 302.906C491.524 291.606 502.975 236.41 507.721 200.08C508.754 192.155 509.827 183.863 510.916 175.304C515.123 142.154 529.685 132.381 541.159 125.832C515.213 146.529 513.792 192.648 512.225 216.598C511.124 233.354 507.676 257.365 505.486 271.107C505.171 273.079 500.942 302.934 500.689 304.432Z" fill="#FFAF2E"/>
<path d="M507.721 200.08C508.754 192.155 509.827 183.862 510.916 175.304C510.596 185.679 509.827 202.728 507.721 220.169C503.761 252.973 499.454 282.755 489.873 302.905C491.524 291.605 502.975 236.41 507.721 200.08Z" fill="#F3A00D"/>
<path d="M604.502 303.516C599.251 280.619 591.523 190.555 591.523 190.555C591.523 190.555 597.752 158.774 587.508 143.234C580.96 133.294 563.718 124 563.718 124C556.058 131.433 554.103 165.944 554.103 194.024V278.264V307.485C567.425 310.232 589.67 311.454 604.502 303.516Z" fill="#FFAF2E"/>
<path d="M557.995 138.349C555.007 152.854 554.103 174.926 554.103 194.024V265.964C555.401 255.38 557.72 227.618 556.614 201.241C555.507 174.863 557.074 148.322 557.995 138.349Z" fill="#F9A319"/>
<path d="M604.502 303.516C599.251 280.619 591.523 190.555 591.523 190.555C591.523 190.555 597.752 158.774 587.508 143.234C587.508 159.72 579.477 182.007 584.11 204.293C590.344 234.265 595.539 261.69 589.67 282.45C584.975 299.058 563.999 306.06 554.103 307.484C567.425 310.232 589.67 311.454 604.502 303.516Z" fill="#F9A319"/>
<path d="M638.793 213.758C640.646 194.829 622.113 167.047 601.103 146.287C591.758 137.053 572.68 126.137 563.716 124L591.522 190.555C591.522 190.555 600.159 200.08 611.15 216.598C614.553 209.165 628.908 204.294 638.793 213.758Z" fill="#FFAF2E"/>
<path d="M638.794 213.758C640.647 194.829 622.108 167.047 601.104 146.287C596.224 141.466 588.692 136.187 581.33 131.938C583.7 136.008 588.805 145.31 590.287 149.95C592.141 155.751 631.998 178.938 628.6 208.713C632.122 209.216 635.677 210.775 638.794 213.758Z" fill="#F9A319"/>
<path d="M607.844 208.709C608.428 202.946 613.92 199.584 617.812 198.622C626.562 196.461 635.307 199.103 639.681 205.588C643.5 211.243 639.199 219.517 635.307 222.64C636.037 211.832 631.909 207.989 622.912 209.43C613.92 210.871 611.247 216.395 610.764 221.198C608.574 219.517 607.114 215.915 607.844 208.709Z" fill="#F9A319"/>
<path d="M622.911 209.431C613.919 210.872 611.246 216.396 610.757 221.199C611.572 231.206 613.043 254.727 612.459 268.752C611.734 286.285 610.757 292.289 607.601 299.974C604.439 307.659 608.618 315.643 614.694 314.201C620.771 312.76 625.73 305.738 624.275 299.974C622.815 294.21 624.275 288.446 626.701 284.363C629.133 280.28 635.305 245.216 635.305 222.64C636.035 211.832 631.902 207.99 622.911 209.431Z" fill="#FFD0B7"/>
<path d="M510.919 175.304C515.126 142.154 529.688 132.381 541.162 125.832C531.57 130.939 509.942 136.823 494.166 164.568C480.766 188.132 470.584 194.339 466.4 195.44C471.455 200.12 480.21 214.193 479.373 223.222C484.815 219.258 500.411 205.954 507.723 200.08C508.757 192.155 509.83 183.863 510.919 175.304Z" fill="#FFAF2E"/>
<path d="M507.722 200.08C508.755 192.155 509.828 183.862 510.917 175.304C507.935 190.277 496.675 199.103 490.497 201.241C485.549 202.95 480.573 212.333 478.709 216.811C479.287 219.086 479.551 221.272 479.371 223.222C484.813 219.258 500.409 205.953 507.722 200.08Z" fill="#F9A319"/>
<path d="M474.629 210.114C471.17 199.426 466.093 196.102 463.925 195.746C464.65 195.033 466.57 193.387 468.952 192.745C471.922 191.944 480.307 192.745 484.093 198.892C487.299 204.096 490.854 212.519 484.093 220.802C478.684 227.429 467.059 226.77 461.92 225.612C467.598 224.9 477.746 219.733 474.629 210.114Z" fill="#F9A319"/>
<path d="M461.919 225.612C467.597 224.899 477.745 219.733 474.628 210.114C472.14 202.427 468.871 196.966 463.924 195.745C462.755 196.176 460.459 197.128 451.372 193.28C440.016 188.47 402.97 171.636 400.266 169.231C397.561 166.827 391.613 158.543 383.23 158.81C374.848 159.078 377.822 174.308 387.827 176.98C397.832 179.652 406.215 186.867 411.082 192.211C415.949 197.555 442.178 223.474 461.919 225.612Z" fill="#FFD0B7"/>
<path d="M540.902 125.844V109.269L563.715 98.355V124C553.544 142.735 539.976 137.966 540.902 125.844Z" fill="#FFD0B7"/>
<path d="M543.425 108.064L563.716 98.355V124C563.699 124.037 563.677 124.074 563.66 124.111C562.638 125.977 561.588 127.607 560.515 129.019C556.741 123.403 546.761 114.689 540.903 110.337V109.477L543.425 108.064Z" fill="url(#paint0_linear_1889_624)"/>
<path d="M529.58 67.4906C529.58 77.218 534.516 78.4012 538.15 77.8879L560.367 101.763C560.626 102.276 563.114 104.393 563.114 109.388C563.114 114.453 567.146 103.941 570.134 101.763C576.323 97.2551 580.529 97.1213 582.489 89.6864C584.174 83.3043 581.798 78.7863 579.85 77.8879C578.682 77.3745 577.435 76.2707 575.565 75.9627C573.694 75.6541 573.223 72.4969 573.223 70.9563C573.093 69.8015 572.588 68.1948 569.606 66.3351C567.753 65.1803 562.962 64.6664 561.142 66.3351C559.974 66.9772 557.323 67.6449 556.077 65.1803C554.83 62.7157 552.179 63.6397 551.011 64.4094C547.585 65.6414 539.638 62.0225 536.549 52.5581C532.843 57.4429 529.58 60.801 529.58 67.4906Z" fill="#2B2B39"/>
<path d="M579.851 77.8881C578.683 77.3742 577.436 76.2704 575.566 75.9624C585.203 83.0493 577.436 94.4039 571.258 97.4562C566.316 99.8981 563.772 106.428 563.115 109.388C563.115 114.453 567.147 103.94 570.135 101.763C576.324 97.2548 580.53 97.121 582.49 89.6867C584.175 83.3046 581.8 78.7861 579.851 77.8881Z" fill="#13131C"/>
<path d="M551.013 64.4094C547.587 65.6414 539.641 62.0219 536.552 52.5581C536.608 58.2509 539.416 69.2076 550.199 67.4906C551.884 66.9328 553.849 65.8229 556.096 68.0428C558.342 70.2626 564.026 65.1797 569.608 66.3351C567.755 65.1797 562.964 64.6658 561.145 66.3351C559.977 66.9767 557.326 67.6443 556.079 65.1797C554.832 62.7151 552.187 63.6391 551.013 64.4094Z" fill="#13131C"/>
<path d="M549.458 110.235C558.5 107.462 562.055 101.121 562.707 98.2975C562.971 97.1421 563.616 93.9333 563.487 92.5214C562.549 89.7488 559.719 93.6763 558.421 95.9872C556.686 99.0678 556.372 88.2854 558.421 85.5899C561.224 81.8927 556.86 80.9138 554.911 79.8138C554.002 79.2999 551.486 78.4275 548.678 79.0435C545.869 79.6595 544.392 78.0163 543.999 77.1178C542.96 75.4496 540.259 73.1132 537.765 77.1178C531.84 86.0522 532.958 97.7842 534.261 102.534C535.558 106.256 540.416 113.007 549.458 110.235Z" fill="#FFD0B7"/>
</g>
<g filter="url(#filter0_d_1889_624)">
<circle cx="155.659" cy="173.47" r="97.659" fill="white"/>
<circle cx="155.659" cy="173.47" r="96.659" stroke="#217BF4" stroke-opacity="0.6" stroke-width="2"/>
</g>
<mask id="mask1_1889_624" style="mask-type:alpha" maskUnits="userSpaceOnUse" x="58" y="49" width="220" height="246">
<path d="M58 173.897C58 119.961 101.723 49.5342 155.659 49.5342C285.668 45.8719 282.056 158.892 274.681 215.86H243.868C228.172 248.795 194.574 271.556 155.659 271.556C142.708 271.556 130.346 269.035 119.037 264.457C118.269 264.146 117.506 263.826 116.748 263.496C114.205 269.743 109.271 284.221 109.881 292.156C97.674 302.074 67.7536 282.848 70.2006 221.2C62.4267 207.186 58 191.058 58 173.897Z" fill="#C4C4C4"/>
</mask>
<g mask="url(#mask1_1889_624)">
<path d="M267.623 193.514C261.65 195.325 254.24 197.884 248.742 196.549C244.335 195.478 244.666 194.086 244.168 191.166C245.565 188.797 251.469 184.242 262.899 181.919C277.185 179.014 278.128 190.328 267.623 193.514Z" fill="#FEBE9D"/>
<path d="M202.666 150.833C200.906 146.56 196.068 145.848 193.869 146.025C177.845 152.436 187.585 198.646 191.355 204.789C195.125 210.932 199.524 213.337 203.923 215.206C208.321 217.076 217.119 216.007 219.318 214.672C221.518 213.337 222.146 212.001 224.659 211.734C227.173 211.467 231.258 210.665 232.828 209.063C234.399 207.46 235.656 205.857 239.427 205.857C243.197 205.857 246.339 203.186 247.595 201.584C248.852 199.981 249.795 199.714 251.994 199.18C254.194 198.646 256.393 198.646 257.021 195.975C257.65 193.303 257.964 187.961 257.65 185.29C257.335 182.619 257.335 182.619 255.764 182.887C254.194 183.154 250.109 185.29 248.852 185.29C247.595 185.29 245.396 185.023 243.197 185.825C240.997 186.626 233.771 189.564 229.058 190.9C224.345 192.235 217.433 192.502 218.061 190.633C218.69 188.763 220.889 183.421 216.49 183.421C212.092 183.421 212.092 180.482 210.207 174.339C208.321 168.196 204.865 156.176 202.666 150.833Z" fill="#217BF4"/>
<path d="M249.168 197.044C250.529 196.955 253.629 196.403 255.137 194.907M250.424 188.23C251.367 187.429 253.818 185.826 256.08 185.826L250.424 188.23ZM252.624 189.565L255.137 188.497L252.624 189.565ZM249.482 193.305C250.948 193.127 254.257 192.45 255.766 191.168L249.482 193.305Z" stroke="#2068D9" stroke-width="1.07894"/>
<path d="M250.02 199.733C249.446 197.603 248.874 194.278 249.481 191.701C248.852 193.57 247.03 197.951 244.768 200.515C241.94 203.72 238.484 203.453 237.856 200.782C237.227 198.111 233.457 199.714 232.2 202.919C230.944 206.124 228.116 210.131 223.403 210.398C218.988 210.648 216.779 211.601 215.484 212.16C215.397 212.198 215.313 212.234 215.234 212.268C213.977 212.802 214.291 210.665 215.548 209.33C216.805 207.994 218.376 204.522 218.061 202.652C216.491 205.59 213.349 209.597 208.322 210.932C203.294 212.268 200.467 209.062 204.237 206.124C208.007 203.186 210.835 200.515 211.777 198.111C212.134 197.202 211.637 197.515 210.644 198.14C209.01 199.168 206.031 201.043 203.294 199.714C198.896 197.577 199.524 191.434 202.98 190.365C204.084 190.024 205.734 189.928 207.509 189.824C211.289 189.605 215.635 189.352 216.491 186.626C214.606 187.694 203.609 189.296 203.294 182.619C202.98 175.941 202.352 171.4 200.781 167.661C200.259 166.419 200.014 164.794 199.76 163.099C199.247 159.691 198.691 156 195.754 154.573C194.915 154.166 191.447 154.321 186.709 155.143C181.829 170.777 188.412 199.993 191.355 204.789C195.125 210.932 199.524 213.337 203.923 215.206C208.321 217.076 217.119 216.008 219.318 214.672C220.037 214.235 220.589 213.799 221.092 213.4C222.13 212.578 222.968 211.914 224.659 211.734C227.173 211.467 231.258 210.665 232.828 209.063C232.941 208.948 233.052 208.833 233.163 208.718C234.593 207.238 235.927 205.857 239.427 205.857C243.197 205.857 246.339 203.187 247.595 201.584C248.396 200.563 249.069 200.084 250.02 199.733Z" fill="#1771EA"/>
<path d="M194.4 208.864C195.962 207.129 198.614 204.69 201.095 203.987C204.866 202.919 202.98 202.384 199.838 203.453C196.697 204.521 196.068 203.719 195.754 200.247C195.44 196.775 196.697 190.631 198.582 186.358C200.467 182.084 202.98 168.729 197.639 163.654C195.182 161.32 190 161.585 185.149 163.982C183.936 179.895 188.906 200.797 191.355 204.788C192.332 206.379 193.35 207.719 194.4 208.864Z" fill="#2068D9"/>
<path d="M246.967 197.311C249.732 194.106 249.376 188.319 248.852 185.826C249.69 187.963 250.863 192.984 248.852 195.976C246.339 199.715 246.339 198.112 246.967 197.311Z" fill="#3881F2"/>
<path d="M171.249 274.503C180.549 270.871 192.928 272.634 197.955 273.969C198.584 274.129 199.212 273.969 200.468 270.23C201.725 266.491 200.783 257.142 200.468 256.341C200.154 255.539 200.154 255.005 200.468 253.67C202.039 244.855 196.07 223.754 193.556 212.001C191.043 200.249 194.499 189.297 197.955 181.284C201.411 173.271 198.583 162.854 197.641 152.17C196.698 141.486 186.016 140.684 171.563 137.746C157.11 134.808 138.573 134.808 130.403 152.437C122.234 170.066 129.775 193.037 130.403 206.125C131.032 219.213 124.748 230.432 120.663 241.917C116.579 253.403 117.522 261.95 116.265 269.429C115.259 275.412 117.312 277.976 118.464 278.51C118.569 279.846 118.778 283.425 118.778 287.058C118.778 291.598 120.663 294.002 125.376 293.735C130.089 293.468 137.63 290.797 144.228 286.523C150.826 282.25 159.623 279.044 171.249 274.503Z" fill="#217BF4"/>
<path d="M171.563 224.021C163.017 230.431 152.502 229.185 148.313 227.76C148.313 228.917 150.324 231.82 158.367 234.171C168.421 237.109 175.333 230.431 178.161 225.089C180.423 220.815 185.387 214.761 187.587 212.268C185.806 213.514 180.109 217.61 171.563 224.021Z" fill="#3881F2"/>
<path d="M197.955 273.969C192.928 272.634 180.549 270.871 171.248 274.503C169.973 275.002 168.73 275.484 167.521 275.953C157.718 279.761 150.102 282.719 144.228 286.523C137.63 290.797 130.089 293.468 125.376 293.735C120.663 294.002 118.778 291.598 118.778 287.057C118.778 283.425 118.569 279.846 118.464 278.51C117.312 277.976 115.259 275.412 116.265 269.429C116.668 267.031 116.845 264.523 117.034 261.843C117.434 256.167 117.889 249.72 120.663 241.917C121.608 239.26 122.671 236.617 123.739 233.962C127.286 225.14 130.886 216.185 130.404 206.125C130.237 202.656 129.585 198.492 128.868 193.917C126.881 181.234 124.4 165.393 130.404 152.436C130.507 152.214 130.611 151.995 130.718 151.778C143.068 141.937 155.317 137.747 165.585 136.761C167.628 137.013 169.632 137.353 171.563 137.746C173.11 138.06 174.613 138.351 176.067 138.631C181.694 139.716 186.564 140.655 190.252 142.304C190.884 142.912 191.361 143.535 191.671 144.156C196.07 152.97 186.958 163.12 179.732 168.195C172.505 173.27 174.076 175.406 182.245 173.269C189.486 171.375 188.334 172 179.446 176.815C178.307 177.433 177.04 178.119 175.647 178.878C163.394 185.556 177.218 182.884 187.272 180.747C197.327 178.611 195.441 183.686 193.242 185.822C192.321 186.718 191.289 187.237 190.379 187.697C189.115 188.334 188.084 188.854 187.901 190.096C187.586 192.233 185.387 194.637 182.56 195.705C182.336 195.79 182.109 195.874 181.878 195.959C179.196 196.956 176.127 198.095 174.39 201.047C172.505 204.253 167.792 204.786 162.137 204.519C156.481 204.252 148.941 206.388 155.853 211.998C162.765 217.607 172.505 213.6 177.532 211.463C165.907 223.75 149.255 214.669 146.113 210.395C142.971 206.121 141.4 204.786 137.316 205.854C133.231 206.923 131.975 211.996 135.745 213.065C137.415 213.538 139.148 213.33 140.559 213.16C142.333 212.947 143.599 212.795 143.599 214.134C143.599 216.168 138.647 219.734 134.268 222.887C133.473 223.459 132.698 224.017 131.975 224.551C127.261 228.023 132.603 230.961 136.059 232.03C139.515 233.098 138.573 234.433 132.917 239.776C125.062 247.523 140.144 254.734 153.968 246.454C165.028 239.83 174.705 239.242 178.161 239.776C174.181 240.756 164.525 244.264 157.738 250.461C152.018 255.684 144.441 257.142 137.704 258.439C134.449 259.065 131.391 259.653 128.832 260.611C120.977 263.549 125.062 269.425 131.66 269.692C135.18 269.835 141.381 266.481 148.499 262.632C154.727 259.264 161.656 255.518 168.107 253.399C181.931 248.858 191.357 252.331 196.384 254.201C188.215 253.667 165.279 260.344 153.34 267.022C147.565 270.252 143.26 271.482 139.501 272.556C135.489 273.703 132.098 274.672 128.204 277.706C120.663 283.583 130.718 287.589 137.944 286.521C141.173 286.043 145.717 283.434 150.907 280.454C157.334 276.764 164.75 272.507 171.877 271.029C181.41 269.052 193.471 271.19 199.453 272.79C198.818 274.037 198.386 274.078 197.955 273.969Z" fill="#1771EA"/>
<path d="M129.997 201.644C131.297 200.071 133.17 197.682 134.174 195.975C135.744 193.305 136.687 192.236 138.886 194.106C141.086 195.975 144.542 195.709 146.427 193.572C146.39 193.719 146.353 193.864 146.316 194.008C145.422 197.516 144.801 199.951 151.14 199.181C153.458 198.9 156.784 199.277 160.001 199.643C165.942 200.317 171.512 200.95 169.678 197.311C166.849 191.702 164.964 178.08 170.62 173.272C175.144 169.426 178.999 164.012 180.36 161.786C182.873 156.711 182.622 146.829 161.508 147.897C153.127 148.321 143.986 146.563 135.432 144.865C133.501 146.922 131.8 149.421 130.403 152.436C124.399 165.393 126.881 181.234 128.868 193.917C129.298 196.661 129.704 199.257 129.997 201.644Z" fill="#2068D9"/>
<path d="M185.701 264.085C192.237 264.299 193.661 260.256 193.556 258.209C193.556 256.606 195.441 256.606 194.499 263.551C193.556 270.496 182.245 266.756 172.505 267.557C162.765 268.359 148.941 274.503 145.485 276.372C162.451 263.818 177.532 263.818 185.701 264.085Z" fill="#3881F2"/>
<path d="M192.925 255.271C193.658 258.031 194.999 264.994 194.496 270.763M123.489 280.112C123.489 282.07 123.677 286.789 124.431 289.995L123.489 280.112ZM131.03 276.64C131.762 279.043 133.166 284.385 132.915 286.522L131.03 276.64ZM136.056 273.968C136.58 275.838 137.627 281.02 137.627 286.789L136.056 273.968ZM142.34 274.502V281.447V274.502ZM147.367 270.763C147.996 272.366 149.064 276.319 148.31 279.31L147.367 270.763ZM152.394 267.825C152.918 269.606 153.966 273.862 153.966 276.64L152.394 267.825ZM158.678 266.222V273.167V266.222ZM164.648 262.75C165.172 265.065 165.905 270.549 164.648 273.968V262.75ZM169.047 261.414C169.78 262.928 171.12 266.757 170.618 269.962L169.047 261.414ZM176.587 260.079C176.587 262.394 176.587 267.237 176.587 268.092V260.079ZM180.672 257.942C180.986 260.079 181.614 265.261 181.614 268.893L180.672 257.942ZM189.155 261.147C189.26 263.284 189.281 268.039 188.527 269.962L189.155 261.147Z" stroke="#2068D9" stroke-width="1.07894"/>
<path d="M126.633 275.305C147.16 265.957 190.54 248.168 198.583 255.006" stroke="#3881F2" stroke-width="1.07894"/>
<path d="M116.265 269.428C115.259 275.411 117.312 277.975 118.464 278.509C118.514 279.146 118.588 280.294 118.651 281.715C121.522 279.4 127.89 274.449 130.403 273.167C125.691 274.503 119.467 277.174 118.651 271.297C117.836 265.421 120.977 259.278 122.863 256.073C124.748 252.867 127.003 243.251 124.619 231.766C123.265 235.163 121.868 238.528 120.663 241.916C116.579 253.401 117.522 261.949 116.265 269.428Z" fill="#2068D9"/>
<path d="M93.3215 282.861C93.751 276.633 94.8432 269.059 98.0459 264.394C100.612 260.655 101.796 261.459 104.702 262.032C106.42 264.179 109.384 271.351 107.494 282.861C105.132 297.248 92.5664 293.812 93.3215 282.861Z" fill="#FEBE9D"/>
<path d="M91.7566 273.969C92.2594 272.901 92.5945 271.387 92.6992 270.764C93.6417 263.819 92.6992 257.142 92.6992 245.657C92.6992 234.171 95.5273 222.151 98.0405 217.877C100.554 213.604 99.9257 209.864 101.183 207.728C102.439 205.591 106.21 203.187 104.953 195.975C103.696 188.763 108.095 187.962 108.409 178.88C108.723 169.799 110.608 158.313 116.578 150.3C122.548 142.287 144.541 136.945 146.741 152.17C148.94 167.394 140.771 177.545 137.315 184.222C133.859 190.9 129.46 205.323 128.832 209.063C128.203 212.802 125.375 223.487 125.375 228.027C125.375 232.568 124.119 240.848 122.234 248.06C120.348 255.272 116.264 264.086 115.007 264.888C113.75 265.689 113.122 266.223 113.122 267.559C113.122 268.894 112.493 273.435 112.179 275.038C111.865 276.64 111.551 277.174 110.608 276.64C109.666 276.106 108.095 276.106 105.267 276.106C102.439 276.106 97.7265 276.64 94.8988 276.373C92.0711 276.106 91.1285 275.305 91.7566 273.969Z" fill="#217BF4"/>
<path d="M104.012 266.759C97.9792 268.041 94.7952 266.937 93.9573 266.224C95.7378 266.759 99.9694 267.192 103.383 266.224C106.211 265.422 110.191 265.512 111.552 265.957C110.086 265.957 106.525 266.117 104.012 266.759Z" fill="#3881F2"/>
<path d="M108.41 267.291C108.096 268.359 107.719 270.764 108.725 271.832C109.73 272.9 108.934 273.88 108.41 274.236M97.4136 269.695C97.6229 270.496 97.7905 272.526 96.7855 274.236L97.4136 269.695ZM101.812 267.825L101.498 273.702L101.812 267.825Z" stroke="#2068D9" stroke-width="1.07894"/>
<path d="M108.427 276.158C109.245 274.72 110.176 272.49 109.981 270.496C109.667 267.291 105.268 266.223 102.755 266.757C105.896 265.422 112.809 262.484 114.694 255.806C116.579 249.129 115.951 245.122 109.981 244.588C108.724 244.588 107.467 244.321 111.866 241.115C116.265 237.91 123.177 231.767 116.579 228.027C109.981 224.288 105.582 221.35 104.64 217.343C107.781 219.48 111.552 221.884 113.123 222.151C114.482 222.382 114.43 222.213 113.782 220.09C113.68 219.758 113.564 219.379 113.437 218.946C112.494 215.74 110.295 207.727 110.295 205.323C111.238 208.262 112.809 212.802 116.893 214.672C120.978 216.542 122.234 211.467 121.606 207.994C120.978 204.522 120.663 201.851 124.748 198.913C128.832 195.975 135.43 185.558 130.718 181.017C126.005 176.476 117.522 168.196 117.836 161.785C118.08 156.801 117.565 155.208 115.256 152.235C115.673 151.571 116.113 150.925 116.579 150.3C120.845 144.573 133.295 140.211 140.856 143.744C141.563 144.171 142.263 144.603 142.955 145.041C144.891 146.591 146.27 148.908 146.742 152.17C148.573 164.845 143.217 174.003 139.377 180.568C138.605 181.888 137.894 183.104 137.315 184.222C133.86 190.9 129.461 205.323 128.832 209.063C128.638 210.22 128.233 212.043 127.766 214.144C126.724 218.828 125.376 224.892 125.376 228.027C125.376 232.568 124.12 240.848 122.234 248.06C120.349 255.272 116.265 264.086 115.008 264.888C113.751 265.689 113.123 266.223 113.123 267.559C113.123 268.894 112.494 273.435 112.18 275.038C111.866 276.64 111.552 277.174 110.609 276.64C110.099 276.351 109.405 276.219 108.427 276.158Z" fill="#1771EA"/>
<path d="M132.087 197.523C130.441 202.515 129.152 207.164 128.833 209.062C128.638 210.219 128.233 212.042 127.766 214.143C126.725 218.827 125.377 224.891 125.377 228.026C125.377 229.444 125.255 231.225 125.028 233.225C123.363 229.959 120.687 226.363 117.208 225.624C111.768 224.467 115.04 224.512 117.443 224.545C117.817 224.55 118.169 224.555 118.465 224.555C120.664 224.555 121.606 223.486 119.093 222.15C117.082 221.082 114.066 215.294 112.809 212.534C114.171 215.294 118.15 220.815 123.178 220.815C124.748 220.815 126.005 219.479 125.063 216.808C124.225 214.435 126.86 204.26 132.087 197.523Z" fill="#2068D9"/>
<path d="M148.676 133.527L150.861 121.104L166.427 124.345C166.063 125.965 166.099 130.989 166.973 137.038C167.847 143.088 170.432 146.311 171.889 147.301L148.676 133.527Z" fill="#FEBE9D"/>
<path d="M150.996 121.104L166.245 124.336C165.978 125.547 165.931 128.662 166.284 132.685C155.4 131.392 151.557 124.426 150.996 121.104Z" fill="#F2AD8A"/>
<path d="M142.331 175.359C141.759 171.636 144.334 170.838 146.623 169.774C148.02 169.125 149.737 168.278 150.342 166.627C154.359 168.2 158.375 168.596 164.648 167.788C164.934 171.552 165.563 180.252 165.792 184.932C166.078 190.783 168.081 200.09 161.5 196.899C154.92 193.708 152.917 193.442 149.77 194.24C146.623 195.038 144.334 194.24 144.048 189.187C143.762 184.134 142.903 176.422 142.331 175.359Z" fill="#8CB9FF"/>
<path d="M149.219 194.388C148.343 192.51 147.021 188.275 147.44 183.358C148.008 176.701 149.711 171.376 151.698 176.435C153.288 180.482 153.685 185.222 153.685 187.085C154.821 186.464 157.148 183.837 157.375 178.298C157.659 171.375 157.943 171.641 158.795 175.635C159.646 179.629 159.93 180.162 160.782 175.635C160.896 175.031 160.989 174.483 161.074 173.987C161.613 170.832 161.797 169.75 164.582 169.274C164.542 168.722 164.505 168.223 164.472 167.789C158.249 168.598 154.264 168.202 150.279 166.627C149.678 168.28 147.975 169.128 146.588 169.778C146.399 169.867 146.208 169.954 146.017 170.041C143.914 170.997 141.81 171.953 142.331 175.37C142.898 176.435 143.75 184.157 144.034 189.216C144.302 194.005 146.352 194.976 149.219 194.388Z" fill="#7EAEFA"/>
<path opacity="0.5" d="M142.889 177.793C143.966 175.532 145.851 172.419 147.736 171.891C150.582 171.095 151.151 170.564 152.004 169.768C152.858 168.971 153.711 169.502 153.996 170.564C154.28 171.626 155.134 170.564 155.987 169.503C156.841 168.441 158.548 169.237 158.833 170.034C158.934 170.318 159.29 170.129 159.9 169.803C160.847 169.299 162.408 168.467 164.582 168.578C164.561 168.295 164.541 168.03 164.523 167.786C158.285 168.592 154.291 168.198 150.297 166.627C149.695 168.274 147.988 169.12 146.598 169.769C146.409 169.857 146.217 169.944 146.026 170.03C143.917 170.984 141.809 171.936 142.331 175.343C142.499 175.658 142.693 176.555 142.889 177.793Z" fill="#70A2F2"/>
<path d="M163.066 128.404C152.698 127.121 144.406 118.217 141.648 114.119C136.133 115.456 135.03 114.653 134.754 110.91C134.478 107.168 141.648 105.297 143.027 99.1484C144.406 93.0002 149.093 81.5063 162.329 76.1598C175.565 70.8137 186.87 88.189 187.146 93.5356C187.422 98.8817 186.598 111.602 183.286 118.93C179.779 126.687 176.026 130.008 163.066 128.404Z" fill="#FEBE9D"/>
<path d="M142.176 113.588C136.693 114.921 135.405 114.956 135.13 111.226C129.921 112.292 118.68 116.175 115.39 123.182C111.278 131.939 115.39 133.338 118.132 134.67C120.874 136.002 119.503 139.732 115.939 140.265C112.375 140.798 112.1 138.134 111.826 136.535C110.181 143.728 115.939 143.728 118.406 142.663C116.761 146.925 117.31 150.122 121.148 151.188C124.986 152.253 121.148 156.25 121.148 159.98C121.148 163.709 125.26 165.841 125.535 168.505C125.809 171.169 129.099 172.501 132.389 173.567C135.679 174.632 134.308 175.965 132.937 178.362C131.566 180.76 133.759 182.625 134.034 185.822C134.308 189.019 136.501 189.285 139.243 189.818C136.501 185.289 138.146 183.691 139.791 182.358L139.843 182.317C141.465 181.004 142.801 179.921 142.259 176.231C141.71 172.501 144.178 171.702 146.371 170.636C148.565 169.57 151.581 167.972 149.387 163.177C147.194 158.381 154.048 155.184 155.693 150.389C157.338 145.593 153.5 139.732 151.855 137.601C150.21 135.469 148.565 132.273 148.016 130.94C147.468 129.608 148.016 129.608 148.29 129.875C149.661 131.207 149.936 130.141 150.21 128.809C150.429 127.743 150.667 124.613 150.758 123.182C146.577 120.212 143.676 115.823 142.176 113.588Z" fill="#2B2B39"/>
<path d="M165.953 132.006V128.56C172.77 129.042 176.661 127.79 179.442 125.079C185.099 131.74 180.091 137.601 179.269 138.933C177.624 136.801 174.334 136.002 173.511 136.002C172.689 136.002 171.866 136.268 171.044 134.937C170.221 133.604 169.947 132.006 168.302 130.94C166.986 130.088 166.188 131.296 165.953 132.006Z" fill="#2B2B39"/>
<path d="M134.75 125.827C136.409 127.042 139.258 130.46 137.385 134.417" stroke="#151523" stroke-width="0.8"/>
<path d="M142.175 128.833C145.717 131.561 151.975 138.337 148.669 143.616C144.536 150.216 143.651 152.592 143.651 157.608" stroke="#151523" stroke-width="0.8"/>
<path d="M135.21 161.474C137.101 160.68 140.26 157.398 137.764 150.622C135.267 143.847 138.426 139.859 140.317 138.712" stroke="#151523" stroke-width="0.8"/>
<path d="M125.696 141.288C123.418 143.486 120.229 148.358 125.696 150.258C132.53 152.632 134.17 155.006 131.983 159.755" stroke="#151523" stroke-width="0.8"/>
<path d="M124.532 154.601C125.233 155.421 126.213 157.771 124.532 160.614" stroke="#151523" stroke-width="0.8"/>
<path d="M120.975 125.459C120.032 126.349 118.775 128.771 121.289 131.335C124.431 134.541 124.117 136.41 122.546 138.547" stroke="#151523" stroke-width="0.8"/>
<path opacity="0.5" d="M127.306 114.418C126.073 116.072 124.856 117.93 123.909 119.798C123.012 121.568 122.351 123.359 122.157 125C121.963 126.641 122.232 128.161 123.235 129.354C123.474 129.638 123.707 129.913 123.933 130.179C124.836 131.24 125.629 132.173 126.2 133.058C126.91 134.16 127.248 135.147 127.031 136.163C126.812 137.183 126.023 138.286 124.339 139.594C123.143 140.524 121.509 141.546 119.34 142.705C119.225 142.975 119.119 143.241 119.024 143.502C121.536 142.189 123.412 141.038 124.763 139.989C126.496 138.642 127.396 137.442 127.649 136.258C127.903 135.07 127.494 133.954 126.751 132.802C126.159 131.884 125.336 130.916 124.431 129.852L124.431 129.851C124.207 129.588 123.978 129.319 123.746 129.044C122.864 127.994 122.597 126.621 122.782 125.054C122.968 123.487 123.603 121.752 124.486 120.009C125.56 117.892 126.99 115.781 128.391 113.974C128.029 114.117 127.667 114.265 127.306 114.418Z" fill="#1C1C2A"/>
<path opacity="0.5" d="M144.195 116.74C143.651 118.554 143.237 121.005 143.393 123.627C143.593 126.991 144.733 130.655 147.763 133.608C151.462 137.212 152.769 139.759 152.769 141.959C152.769 144.169 151.456 146.11 149.659 148.534C147.85 150.974 146.785 153.378 146.926 156.273C147.049 158.794 148.086 161.656 150.281 165.211C150.171 164.6 149.954 163.92 149.607 163.16C149.492 162.909 149.402 162.662 149.335 162.419C148.14 160.05 147.563 158.044 147.476 156.248C147.342 153.516 148.339 151.23 150.105 148.848C151.883 146.449 153.319 144.37 153.319 141.959C153.319 139.537 151.876 136.858 148.151 133.229C145.241 130.393 144.136 126.867 143.942 123.596C143.8 121.201 144.147 118.952 144.625 117.23C144.477 117.065 144.334 116.901 144.195 116.74Z" fill="#1C1C2A"/>
<path opacity="0.5" d="M138.721 189.817C138.178 189.188 137.662 188.453 137.259 187.635C136.366 185.818 136.038 183.605 137.204 181.228C138.58 178.425 138.076 175.93 137.612 173.634C137.55 173.327 137.489 173.024 137.433 172.724C137.194 171.442 137.048 170.219 137.303 168.995C137.557 167.779 138.212 166.536 139.621 165.229C141.116 163.842 141.677 162.405 141.79 160.914C141.883 159.665 141.661 158.375 141.435 157.071C141.396 156.843 141.356 156.614 141.318 156.385C141.061 154.833 140.871 153.24 141.209 151.56C141.546 149.887 142.412 148.107 144.304 146.198L144.312 146.19L144.319 146.181C145.631 144.618 145.832 142.507 145.124 140.369C144.435 138.29 142.884 136.163 140.613 134.42C141.264 133.178 141.707 130.21 139.394 126.317C137.889 123.783 136.953 121.551 136.853 119.406C136.78 117.845 137.149 116.313 138.092 114.726C137.879 114.717 137.681 114.695 137.499 114.661C136.595 116.255 136.228 117.822 136.304 119.43C136.41 121.706 137.399 124.028 138.918 126.586C141.259 130.526 140.621 133.369 140.054 134.299C138.331 135.427 135.95 137.583 134.317 140.447C132.744 143.207 131.858 146.636 132.941 150.433C132.85 150.395 132.756 150.356 132.66 150.318C128.985 148.859 127.732 147.179 127.606 145.589C127.477 143.961 128.51 142.292 129.745 140.822C130.99 139.339 132.601 137.093 133.269 134.625C133.942 132.139 133.658 129.419 131.096 127.06C129.193 125.31 128.701 123.055 128.871 120.919C129.041 118.777 129.877 116.78 130.593 115.602L130.12 115.329C129.37 116.563 128.501 118.638 128.323 120.878C128.144 123.122 128.66 125.556 130.718 127.45C133.105 129.647 133.371 132.151 132.738 134.488C132.1 136.844 130.549 139.018 129.319 140.483C128.079 141.96 126.911 143.775 127.058 145.63C127.207 147.523 128.703 149.326 132.453 150.815C132.741 150.929 133.01 151.047 133.26 151.167C134.614 151.818 135.407 152.543 135.821 153.289C136.232 154.031 136.287 154.824 136.102 155.65C135.727 157.326 134.386 159.072 133.164 160.61L133.01 160.804C132.775 161.1 132.547 161.386 132.337 161.659C131.08 163.292 130.492 164.69 130.529 166.114C130.556 167.173 130.928 168.219 131.578 169.356C130.687 168.695 129.794 167.964 129.061 167.131C128.015 165.943 127.314 164.567 127.408 162.907C127.452 162.124 127.673 161.268 128.13 160.327C128.753 159.046 129.195 157.898 129.373 156.892C129.552 155.883 129.469 154.99 129.012 154.247C128.554 153.503 127.748 152.954 126.577 152.573C125.574 152.247 124.287 152.04 122.677 151.945C122.799 152.113 122.881 152.298 122.931 152.498C124.376 152.599 125.519 152.794 126.403 153.081C127.5 153.438 128.172 153.926 128.54 154.522C128.907 155.119 128.996 155.867 128.831 156.801C128.666 157.737 128.248 158.833 127.634 160.098C127.155 161.083 126.912 161.998 126.86 162.853C126.572 164.019 126.142 165.886 125.784 167.732C125.743 167.945 125.702 168.158 125.663 168.371C125.671 168.42 125.677 168.469 125.682 168.519C125.723 168.92 125.832 169.292 125.999 169.636C126.094 169.058 126.205 168.447 126.324 167.832C126.545 166.694 126.793 165.548 127.018 164.565C127.297 165.669 127.897 166.632 128.643 167.48C129.742 168.728 131.174 169.746 132.395 170.611L132.785 170.246C131.694 168.651 131.111 167.363 131.079 166.101C131.046 164.845 131.558 163.564 132.777 161.981C132.865 161.866 132.957 161.749 133.051 161.629C133.017 162.558 133.045 163.769 133.205 165.057C133.422 166.804 133.887 168.715 134.793 170.259C135.604 171.643 135.284 173.278 134.484 174.815C134.483 174.817 134.482 174.818 134.481 174.82C134.641 175.138 134.627 175.486 134.501 175.876C134.67 175.61 134.829 175.336 134.974 175.057C135.806 173.459 136.219 171.611 135.27 169.993C134.416 168.537 133.964 166.705 133.751 164.993C133.544 163.33 133.564 161.801 133.648 160.876C134.84 159.374 136.239 157.556 136.64 155.763C136.845 154.842 136.792 153.912 136.304 153.034C135.832 152.182 134.967 151.408 133.608 150.737C132.368 146.928 133.215 143.483 134.797 140.707C136.346 137.991 138.593 135.928 140.245 134.82C142.46 136.512 143.948 138.564 144.6 140.534C145.266 142.546 145.057 144.449 143.9 145.833C141.948 147.806 141.028 149.674 140.669 151.457C140.312 153.235 140.517 154.908 140.775 156.47C140.815 156.707 140.855 156.941 140.895 157.172C141.12 158.479 141.33 159.696 141.241 160.875C141.138 162.24 140.634 163.55 139.242 164.842C137.763 166.214 137.043 167.551 136.764 168.888C136.487 170.218 136.65 171.524 136.892 172.82C136.95 173.129 137.011 173.437 137.073 173.745C137.536 176.048 138.001 178.363 136.708 180.997C135.455 183.55 135.814 185.936 136.763 187.866C137.081 188.512 137.464 189.107 137.877 189.643C138.149 189.704 138.431 189.761 138.721 189.817Z" fill="#1C1C2A"/>
<path d="M115.712 123.312C118.432 121.479 121.318 120.104 122.037 121.652C123.403 124.592 126.135 122.721 126.955 120.582C127.774 118.444 128.047 118.979 129.413 122.186C129.998 123.559 130.382 122.875 130.91 121.937C131.614 120.683 132.573 118.976 134.604 121.116C136.315 122.92 137.9 121.123 139.389 119.434C140.988 117.619 142.477 115.931 143.892 118.978C144.813 120.959 145.485 123.092 146.118 125.1C146.738 127.067 147.32 128.915 148.062 130.385C147.914 129.68 148.315 129.721 148.536 129.938C149.903 131.274 150.176 130.205 150.449 128.868C150.668 127.799 150.904 124.658 150.995 123.222C146.829 120.242 143.669 115.83 142.175 113.588C136.711 114.925 135.697 114.968 135.423 111.226C130.233 112.295 119.032 116.192 115.754 123.222C115.74 123.252 115.726 123.282 115.712 123.312Z" fill="#1C1C2A"/>
<path d="M147.982 130.972C147.433 129.636 147.982 129.636 148.256 129.903C148.877 130.507 149.273 130.62 149.545 130.437C151.402 132.219 155.663 136.21 157.858 137.92C160.053 139.63 165.723 141.483 168.284 142.195C167.357 140.325 165.59 135.675 165.934 132.041C166.168 131.328 166.967 130.116 168.284 130.972C169.93 132.041 170.204 133.644 171.027 134.98C171.851 136.316 172.673 136.049 173.497 136.049C174.32 136.049 177.612 136.851 179.258 138.989C179.715 139.345 181.014 140.165 182.55 140.592C184.471 141.127 186.94 143.799 186.117 146.471C185.294 149.144 182.002 151.816 180.356 154.756C178.709 157.695 176.24 166.514 167.735 168.118C166.253 168.397 164.888 168.622 163.62 168.794C157.605 169.606 153.754 169.208 149.902 167.627C150.272 166.568 150.208 165.181 149.353 163.307C147.158 158.497 154.017 155.29 155.663 150.48C157.31 145.67 153.469 139.791 151.822 137.653C150.176 135.515 148.53 132.308 147.982 130.972Z" fill="#8CB9FF"/>
<path d="M160.281 139.139C161.838 141.304 164.872 144.327 168.652 144.685C174.265 145.218 175.067 140.16 174.533 137.764C172.127 139.628 167.85 141.225 168.117 137.498C168.154 136.979 168.197 136.486 168.237 136.017C168.427 133.802 168.573 132.113 167.915 130.725C166.752 130.121 166.044 131.238 165.827 131.91C165.492 135.529 167.214 140.161 168.117 142.024C166.29 141.504 162.838 140.375 160.281 139.139Z" fill="#7EAEFA"/>
<path d="M157.901 168.169C157.105 167.963 156.322 167.72 155.539 167.439C155.963 166.381 155.89 164.995 154.911 163.121C153.371 160.177 155.721 157.833 158.207 155.354C159.779 153.786 161.406 152.164 162.137 150.3C163.476 146.885 161.645 142.931 159.795 140.161C162.145 141.47 165.782 143.389 168.421 144.424C172.505 146.027 171.563 148.965 166.221 146.294C164.022 145.225 164.022 148.698 168.421 150.568C172.819 152.437 180.988 152.17 183.816 145.76C186.644 139.349 190.1 140.15 187.901 146.294C185.701 152.437 181.302 159.115 177.847 161.252C176.172 162.287 173.761 162.57 171.291 162.86C168.662 163.168 165.966 163.484 164.022 164.724C161.13 166.568 160.318 168.068 160.256 168.659C159.761 168.58 159.276 168.488 158.798 168.383L157.901 168.169Z" fill="#7EAEFA"/>
<path opacity="0.5" d="M149.86 166.627C149.989 165.686 149.799 164.525 149.116 163.069C147.738 160.134 149.841 157.797 152.066 155.326C153.473 153.763 154.929 152.145 155.582 150.288C155.68 150.011 155.758 149.731 155.82 149.448L158.956 152.418C160.924 154.282 167.672 154.547 171.046 153.749C168.796 155.081 165.985 155.346 160.643 154.547C155.301 153.748 153.614 156.145 156.707 157.742C159.8 159.34 168.796 156.943 171.889 154.813C169.089 159.393 163.754 160.046 159.849 160.524C159.44 160.574 159.047 160.622 158.675 160.672C157.303 160.858 155.795 160.72 154.447 160.597C151.929 160.367 149.972 160.188 150.522 162.27C151.127 164.565 150.419 166.03 149.86 166.627Z" fill="#70A2F2"/>
<path d="M153.014 86.7458C154.753 80.5447 160.077 80.4201 162.522 81.133C163.88 81.3881 162.794 78.193 167.412 77.6584C172.031 77.1239 175.019 80.0642 176.378 82.2025C177.736 84.3408 178.823 86.4791 180.996 88.3499C182.083 91.5573 185.614 95.0322 186.43 95.8339C186.43 96.636 186.744 101.949 186.744 104.354C191.362 100.879 189.418 97.7051 190.505 94.7647C191.374 92.4127 190.686 90.9336 190.233 90.4882C190.324 89.2407 190.396 86.372 189.961 84.8754C189.418 83.0042 187.516 82.7371 186.701 82.7371C187.244 81.4004 186.701 80.0642 185.886 79.5292C185.071 78.9947 184.256 77.6584 183.169 75.5202C182.083 73.3818 177.736 69.9071 175.834 69.1052C173.933 68.3034 173.933 66.9669 173.389 66.4324C166.326 60.2847 160.077 62.9576 158.719 63.4922C157.361 64.0268 156.546 63.4922 156.002 63.225C145.407 56.8101 138.615 65.8979 136.714 68.5707C125.303 73.3819 121.228 79.5296 122.043 88.0828C122.858 96.6359 120.413 99.8434 118.511 101.715C116.61 103.585 117.153 105.457 118.783 107.595C121.771 111.871 116.61 112.406 114.708 113.475C112.806 114.544 114.165 117.484 113.35 118.821C112.534 120.157 112.806 122.83 114.98 124.968C118.24 118.821 127.477 116.148 132.638 115.079C137.8 114.01 142.69 106.793 146.494 103.585C150.297 100.378 150.841 94.4973 153.014 86.7458Z" fill="#2B2B39"/>
<path opacity="0.5" d="M145.873 104.177C146.295 97.6944 147.558 89.9625 150.186 84.1108C151.803 80.5113 153.92 77.6621 156.637 76.23C159.298 74.8273 162.588 74.7576 166.662 76.7789C166.61 77.1797 166.504 77.5594 166.361 77.9141C166.557 77.8607 166.766 77.8134 166.992 77.7732C167.108 77.4185 167.19 77.0428 167.225 76.6483C167.346 75.3053 166.928 73.7788 165.567 72.1807C164.105 70.4627 162.602 69.145 161.264 67.9722C160.853 67.6128 160.459 67.2669 160.086 66.9274C158.94 65.8847 157.995 64.8998 157.373 63.7466C157.108 63.7129 156.877 63.6399 156.672 63.5557C157.127 64.5543 157.795 65.4148 158.595 66.2423C157.293 65.727 155.673 65.2559 153.933 65.0279C150.476 64.575 146.491 65.0767 143.598 68.165C140.565 71.4037 138.026 76.0441 135.975 80.8286C133.922 85.617 132.35 90.5699 131.257 94.4484C130.172 98.2951 128.344 102.201 125.915 105.239C124.107 107.499 121.979 109.265 119.588 110.182C119.554 110.418 119.479 110.633 119.37 110.831C122.052 109.919 124.398 108.003 126.345 105.568C128.828 102.463 130.683 98.4893 131.782 94.5905C132.872 90.7239 134.438 85.7945 136.478 81.0351C138.521 76.271 141.031 71.6972 144.001 68.526C146.379 65.9868 149.555 65.2829 152.561 65.4379C149.643 66.5364 144.708 69.4025 141.114 74.8782C138.56 78.7691 137.06 84.43 135.569 90.0576L135.451 90.5042C133.912 96.3081 132.353 102.027 129.658 105.852C127.513 108.895 124.516 110.759 121.631 111.851C119.191 112.775 116.841 113.142 115.177 113.208C114.964 113.297 114.769 113.388 114.6 113.482C114.499 113.539 114.406 113.601 114.322 113.668L114.32 113.749C116.038 113.794 118.871 113.468 121.828 112.349C124.787 111.229 127.885 109.309 130.107 106.156C132.869 102.236 134.448 96.4135 135.979 90.6383L136.083 90.2463C137.586 84.5737 139.067 78.9844 141.573 75.1668C145.651 68.9538 151.485 66.1856 153.913 65.5643C155.714 65.8058 157.379 66.3142 158.673 66.8519C155.372 67.0414 149.986 68.7988 147.637 74.9288C146.835 77.0225 145.758 80.4504 144.491 84.479L144.396 84.7843C143.086 88.9494 141.578 93.7363 139.96 98.3727C138.341 103.01 136.613 107.488 134.868 111.038C134.103 112.593 133.338 113.965 132.578 115.092C132.589 115.089 132.6 115.087 132.611 115.085C132.861 115.033 133.111 114.968 133.359 114.888C134.029 113.839 134.697 112.618 135.36 111.269C137.119 107.691 138.855 103.189 140.476 98.5455C142.098 93.9003 143.609 89.1059 144.917 84.9415L145.007 84.6549C146.278 80.6108 147.352 77.1944 148.148 75.1162C150.683 68.5017 156.904 67.207 159.785 67.3829C160.149 67.7125 160.528 68.0446 160.918 68.3863C162.251 69.5552 163.713 70.8377 165.148 72.5227C166.287 73.8596 166.697 75.1071 166.699 76.2001C162.598 74.223 159.184 74.2807 156.378 75.7599C153.505 77.274 151.324 80.2506 149.687 83.8955C146.943 90.0019 145.677 98.0933 145.293 104.728C145.489 104.537 145.682 104.353 145.873 104.177Z" fill="#1C1C2A"/>
<path opacity="0.5" d="M119.197 108.429C122.35 107.3 124.199 104.565 125.432 101.22C126.19 99.1632 126.721 96.8601 127.182 94.528C127.366 93.6001 127.538 92.6703 127.708 91.7488C127.968 90.3449 128.224 88.9605 128.512 87.6303C129.86 81.4077 133.884 73.2268 136.36 68.7583C136.083 68.8763 135.812 68.9951 135.544 69.1147C133.044 73.7087 129.283 81.4992 127.978 87.5196C127.689 88.8543 127.43 90.2562 127.168 91.6684C126.998 92.5887 126.827 93.5134 126.647 94.4265C126.187 96.7518 125.661 99.0223 124.918 101.039C123.701 104.342 121.92 106.919 118.927 107.956C119.029 108.119 119.119 108.277 119.197 108.429Z" fill="#1C1C2A"/>
<path d="M186.453 96.5515C186.849 96.5826 187.249 96.6029 187.646 96.614C188.45 96.6367 189.256 96.6216 190.029 96.5818C190.051 96.4011 190.075 96.2215 190.105 96.0432C189.315 96.0862 188.487 96.1037 187.662 96.0806C187.248 96.0691 186.838 96.0472 186.434 96.0142C186.437 96.1507 186.444 96.3326 186.453 96.5515Z" fill="#3A0A44"/>
<path d="M181.221 88.9443C184.737 90.6654 188.18 91.0583 190.456 90.9735C190.355 90.7824 190.246 90.638 190.148 90.5416L190.151 90.5034L190.155 90.4481C187.785 90.4915 184.214 90.0039 180.653 88.0459C180.764 88.1482 180.878 88.2497 180.994 88.35C181.061 88.5474 181.137 88.7457 181.221 88.9443Z" fill="#3A0A44"/>
<path opacity="0.5" d="M162.601 69.5484C163.824 68.1712 167.624 66.1366 173.866 67.3744C173.965 67.5726 174.081 67.7844 174.235 67.9974C167.855 66.5847 164.104 68.6656 163.009 69.8999L162.601 69.5484Z" fill="#1C1C2A"/>
<path opacity="0.5" d="M184.681 82.8148C185.367 82.941 186.06 82.8466 186.752 82.4295C186.72 82.5529 186.679 82.6775 186.628 82.8016C186.765 82.8016 186.933 82.8092 187.121 82.8311C186.298 83.3549 185.444 83.4978 184.582 83.3394C183.369 83.1165 182.188 82.3045 181.093 81.2588C179.385 79.628 177.8 77.3389 176.551 75.5354C176.199 75.0259 175.873 74.5554 175.579 74.1494C174.584 72.7768 172.912 72.5026 171.136 72.7702C169.365 73.037 167.571 73.8345 166.463 74.4901L166.184 74.0324C167.332 73.3533 169.193 72.5228 171.054 72.2425C172.91 71.963 174.848 72.2226 176.019 73.8393C176.326 74.2628 176.661 74.7464 177.021 75.2655C178.268 77.0654 179.807 79.2873 181.47 80.8751C182.54 81.8977 183.627 82.6205 184.681 82.8148Z" fill="#1C1C2A"/>
<path d="M166.749 70.3994C168.382 69.1438 172.464 67.655 175.729 71.7446C178.995 75.8345 182.171 78.4715 183.35 79.2787M170.559 75.7811C173.008 76.4089 178.288 78.5253 179.812 81.9691C181.717 86.274 185.255 88.9647 187.976 88.6957M185.799 91.386C186.253 92.1037 187.541 93.3233 189.065 92.4623M165.388 65.0187C166.567 64.8394 169.252 64.6421 170.559 65.2878" stroke="#151523" stroke-width="0.8"/>
<path d="M160.281 70.2835C156.666 70.1944 148.679 72.85 145.643 84.1853M144.829 74.8284C142.751 78.66 138.215 87.9281 136.697 94.3441C134.799 102.364 133.444 112.524 119.89 114.662M122.601 101.028C123.866 99.0673 126.234 93.97 125.583 89.2647C124.77 83.3832 125.854 77.7692 130.733 74.561M152.962 63.5999C148.173 63.2435 138.053 64.8832 135.884 74.2935C133.715 83.704 129.017 95.6807 126.939 100.493" stroke="#151523" stroke-width="0.8"/>
</g>
<path d="M404.891 78.5771H328.037C324.642 78.5771 321.89 81.3288 321.89 84.7238V102.146C321.89 105.541 324.642 108.293 328.037 108.293H390.668L409.839 114.524L404.567 108.293H404.891C408.285 108.293 411.037 105.541 411.037 102.146V84.7238C411.037 81.3288 408.285 78.5771 404.891 78.5771Z" fill="#FFBE56"/>
<path fill-rule="evenodd" clip-rule="evenodd" d="M342.499 95.8317C344.087 95.8317 345.375 94.5441 345.375 92.9559C345.375 91.3677 344.087 90.0801 342.499 90.0801C340.911 90.0801 339.624 91.3677 339.624 92.9559C339.624 94.5441 340.911 95.8317 342.499 95.8317ZM358.795 95.8317C360.383 95.8317 361.671 94.5441 361.671 92.9559C361.671 91.3677 360.383 90.0801 358.795 90.0801C357.207 90.0801 355.919 91.3677 355.919 92.9559C355.919 94.5441 357.207 95.8317 358.795 95.8317ZM377.487 92.9559C377.487 94.5441 376.2 95.8317 374.612 95.8317C373.023 95.8317 371.736 94.5441 371.736 92.9559C371.736 91.3677 373.023 90.0801 374.612 90.0801C376.2 90.0801 377.487 91.3677 377.487 92.9559ZM390.428 95.8317C392.016 95.8317 393.304 94.5441 393.304 92.9559C393.304 91.3677 392.016 90.0801 390.428 90.0801C388.84 90.0801 387.552 91.3677 387.552 92.9559C387.552 94.5441 388.84 95.8317 390.428 95.8317Z" fill="white"/>
<path d="M289.489 453.748C289.489 505.544 331.478 547.533 383.273 547.533C435.07 547.533 477.061 505.544 477.061 453.748C477.061 401.952 435.07 359.962 383.273 359.962C331.478 359.962 289.489 401.952 289.489 453.748Z" fill="white"/>
<path d="M383.273 546.533C332.03 546.533 290.489 504.992 290.489 453.748C290.489 402.504 332.03 360.962 383.273 360.962C434.517 360.962 476.061 402.504 476.061 453.748C476.061 504.992 434.517 546.533 383.273 546.533Z" stroke="#2773D9" stroke-opacity="0.6" stroke-width="2"/>
<path d="M401.127 392.143C391.607 411.882 375.261 400.11 371.508 392.142C378.956 392.14 376.568 377.044 375.499 369.496H397.498C397.083 381.122 399.743 389.439 401.127 392.143Z" fill="#FCC4AC"/>
<path d="M401.127 392.143C391.607 411.882 375.261 400.11 371.508 392.142C378.956 392.14 376.568 377.044 375.499 369.496H397.498C397.083 381.122 399.743 389.439 401.127 392.143Z" fill="url(#paint1_linear_1889_624)"/>
<path d="M351.07 401.865C350.957 434.133 342.144 519.471 340.837 532.752C340.148 539.778 357.295 545.919 376.497 547.293C401.442 549.077 422.307 540.664 426.809 536.828C428.05 498.475 430.016 414.756 430.016 407.642C420.685 400.994 407.322 394.77 401.127 392.144C388.833 399.762 380.042 397.16 374.269 391.265C365.592 392.886 355.121 399.395 351.07 401.865Z" fill="#307FE2"/>
<path d="M351.07 401.865C350.957 434.133 342.144 519.471 340.837 532.752C340.148 539.778 357.295 545.919 376.497 547.293C401.442 549.077 422.307 540.664 426.809 536.828C428.05 498.475 430.016 414.756 430.016 407.642C420.685 400.994 407.322 394.77 401.127 392.144C388.833 399.762 380.042 397.16 374.269 391.265C365.592 392.886 355.121 399.395 351.07 401.865Z" fill="url(#paint2_linear_1889_624)"/>
<path d="M351.07 401.865C350.957 434.133 342.144 519.471 340.837 532.752C340.148 539.778 357.295 545.919 376.497 547.293C401.442 549.077 422.307 540.664 426.809 536.828C428.05 498.475 430.016 414.756 430.016 407.642C420.685 400.994 407.322 394.77 401.127 392.144C388.833 399.762 380.042 397.16 374.269 391.265C365.592 392.886 355.121 399.395 351.07 401.865Z" fill="#2773D9"/>
<path opacity="0.35" d="M373.044 391.522C373.193 391.487 373.341 391.454 373.484 391.422C374.321 396.797 375.147 404.01 375.432 411.446C375.788 420.797 375.283 430.534 372.83 437.418C369.807 445.923 369.807 456.253 370.567 465.869C370.888 469.98 371.351 473.954 371.779 477.596V477.596V477.61C371.85 478.22 371.922 478.821 371.987 479.411C372.462 483.524 372.848 487.145 372.848 489.94C372.848 490.547 372.848 491.141 372.848 491.726C372.872 496.49 372.89 500.618 371.565 505.507C370.086 510.998 366.921 517.437 360.221 526.844C359.39 528.023 359.194 529.687 359.473 531.651C359.746 533.609 360.482 535.83 361.468 538.086C362.579 540.638 363.998 543.221 365.4 545.503C365.204 545.464 365.002 545.424 364.806 545.385C363.464 543.176 362.122 540.707 361.058 538.266C360.067 535.991 359.312 533.728 359.027 531.713C358.748 529.702 358.926 527.901 359.853 526.586V526.585C366.54 517.199 369.67 510.809 371.132 505.39C372.438 500.563 372.42 496.496 372.403 491.728V491.726C372.403 491.142 372.397 490.547 372.397 489.94C372.397 487.176 372.017 483.581 371.541 479.462C371.476 478.87 371.405 478.267 371.334 477.654V477.649V477.648C370.906 474.008 370.443 470.024 370.116 465.904C369.356 456.277 369.356 445.868 372.409 437.268C374.826 430.468 375.337 420.804 374.98 411.463C374.701 404.059 373.882 396.877 373.044 391.522Z" fill="white"/>
<path opacity="0.35" d="M344.415 538.385C344.629 538.532 344.849 538.678 345.08 538.823C344.201 536.736 343.548 534.694 343.293 532.877C343.019 530.913 343.209 529.25 344.041 528.071C350.74 518.664 353.906 512.225 355.391 506.734C356.709 501.845 356.692 497.717 356.674 492.953V492.943C356.668 492.362 356.668 491.77 356.668 491.166C356.668 488.372 356.288 484.751 355.813 480.638C355.741 480.047 355.67 479.446 355.599 478.836V478.823V478.822C355.171 475.18 354.708 471.206 354.387 467.095C353.627 457.48 353.627 447.15 356.656 438.645C359.103 431.76 359.608 422.023 359.251 412.673C359.05 407.407 358.58 402.254 358.022 397.786C357.88 397.863 357.737 397.941 357.6 398.019C358.147 402.434 358.604 407.507 358.8 412.689C359.156 422.03 358.646 431.694 356.228 438.494C353.176 447.094 353.176 457.504 353.936 467.13C354.262 471.251 354.726 475.234 355.153 478.875V478.875V478.88C355.225 479.493 355.296 480.096 355.367 480.689C355.842 484.808 356.217 488.402 356.217 491.166C356.217 491.773 356.222 492.367 356.222 492.949V492.954C356.24 497.722 356.258 501.789 354.957 506.617C353.49 512.036 350.36 518.425 343.673 527.811V527.812C342.746 529.127 342.568 530.929 342.847 532.939C343.085 534.627 343.655 536.488 344.415 538.385Z" fill="white"/>
<path opacity="0.35" d="M381.566 547.891C380.444 545.969 379.351 543.895 378.454 541.838C377.462 539.564 376.708 537.301 376.429 535.286C376.144 533.275 376.322 531.474 377.249 530.159V530.158C383.936 520.772 387.072 514.382 388.533 508.964C389.834 504.136 389.816 500.068 389.798 495.3V495.298C389.798 494.715 389.792 494.121 389.792 493.513C389.792 490.749 389.418 487.154 388.943 483.035C388.872 482.441 388.801 481.836 388.729 481.222V481.222C388.308 477.581 387.838 473.597 387.518 469.477C386.757 459.85 386.752 449.44 389.81 440.841C392.228 434.041 392.732 424.377 392.382 415.036C392.121 408.26 391.414 401.67 390.654 396.495C390.802 396.467 390.951 396.438 391.093 396.407C391.853 401.599 392.572 408.215 392.827 415.019C393.184 424.37 392.679 434.107 390.232 440.991C387.209 449.496 387.203 459.826 387.963 469.442C388.29 473.553 388.753 477.527 389.175 481.168V481.168C389.246 481.783 389.317 482.389 389.389 482.984C389.864 487.097 390.244 490.718 390.244 493.513C390.244 494.119 390.244 494.715 390.25 495.3C390.268 500.063 390.285 504.191 388.967 509.081C387.482 514.571 384.322 521.01 377.617 530.417C376.785 531.596 376.595 533.26 376.868 535.223C377.148 537.182 377.884 539.403 378.864 541.66C379.797 543.799 380.949 545.961 382.119 547.949C381.935 547.93 381.751 547.911 381.566 547.891Z" fill="white"/>
<path opacity="0.35" d="M400.145 549.063C398.779 546.827 397.412 544.319 396.331 541.838C395.34 539.563 394.585 537.3 394.3 535.285C394.021 533.275 394.199 531.473 395.126 530.158V530.158C401.813 520.771 404.944 514.382 406.411 508.963C407.711 504.135 407.693 500.068 407.676 495.3C407.676 494.715 407.67 494.121 407.67 493.513C407.67 490.748 407.296 487.153 406.82 483.035C406.749 482.441 406.678 481.837 406.607 481.222V481.221C406.185 477.58 405.716 473.597 405.395 469.477C404.629 459.85 404.629 449.44 407.687 440.84C410.105 434.041 410.61 424.376 410.259 415.036C409.98 407.776 409.184 400.73 408.371 395.409C408.531 395.486 408.691 395.564 408.858 395.642C409.659 400.942 410.431 407.876 410.705 415.018C411.061 424.37 410.556 434.106 408.109 440.991C405.086 449.496 405.08 459.825 405.84 469.441C406.167 473.553 406.63 477.527 407.052 481.168V481.176C407.123 481.788 407.195 482.391 407.266 482.983C407.741 487.096 408.121 490.718 408.121 493.513C408.121 494.119 408.121 494.713 408.127 495.297V495.299C408.145 500.063 408.163 504.19 406.844 509.08C405.359 514.571 402.2 521.01 395.494 530.417C394.663 531.596 394.472 533.259 394.746 535.223C395.025 537.182 395.761 539.402 396.741 541.659C397.852 544.208 399.271 546.79 400.673 549.072C400.495 549.069 400.323 549.066 400.145 549.063Z" fill="white"/>
<path opacity="0.35" d="M418.284 548.165C417.108 546.167 415.95 543.992 415.012 541.838C414.02 539.563 413.266 537.3 412.987 535.285C412.701 533.275 412.886 531.473 413.806 530.158L413.812 530.158C420.5 520.771 423.63 514.382 425.091 508.963C426.392 504.135 426.38 500.068 426.362 495.3C426.356 494.715 426.356 494.121 426.356 493.513C426.356 490.748 425.976 487.153 425.501 483.035C425.429 482.442 425.364 481.838 425.293 481.225V481.222C424.865 477.58 424.402 473.597 424.075 469.477C423.315 459.85 423.309 449.44 426.368 440.84C428.785 434.041 429.296 424.376 428.94 415.036C428.827 412.129 428.637 409.257 428.387 406.516C428.553 406.624 428.708 406.733 428.868 406.842C429.1 409.479 429.284 412.233 429.385 415.018C429.741 424.37 429.237 434.106 426.79 440.99C423.766 449.496 423.76 459.825 424.521 469.441C424.847 473.553 425.311 477.527 425.738 481.168C425.81 481.783 425.875 482.388 425.946 482.983C426.421 487.096 426.801 490.718 426.801 493.513C426.801 494.119 426.807 494.714 426.807 495.299C426.825 500.063 426.843 504.19 425.524 509.08C424.04 514.57 420.88 521.01 414.174 530.417C413.349 531.596 413.153 533.259 413.432 535.223C413.705 537.182 414.442 539.402 415.428 541.659C416.378 543.848 417.56 546.062 418.76 548.088C418.605 548.114 418.445 548.14 418.284 548.165Z" fill="white"/>
<path d="M362.159 337.762C361.862 344.522 362.159 361.04 362.159 373.139C362.159 393.591 392.812 377.733 397.498 369.495C406.728 353.27 396.524 338.638 394.576 337.762H362.159Z" fill="url(#paint3_linear_1889_624)"/>
<path d="M362.159 337.762C361.862 344.522 362.159 361.04 362.159 373.139C362.159 393.591 392.812 377.733 397.498 369.495C406.728 353.27 396.524 338.638 394.576 337.762H362.159Z" fill="#FCC4AC"/>
<path d="M397.985 331.8C404.684 330.528 403.704 335.953 403.318 336.836C419.325 341.246 399.867 373.579 397.48 374.252L397.462 368.219C397.438 365.814 402.142 363.364 399.57 359.139C396.155 353.53 395.413 364.552 395.413 364.552C392.989 363.276 392.11 354.129 394.367 348.954C386.444 352.449 381.247 345.938 380.244 344.078C374.655 347.327 366.09 346.022 363.334 343.347C362.895 344.839 362.022 347.618 362.022 352.483C355.631 349.042 352.335 336.338 355.714 337.498C355.281 312.2 377.607 321.295 380.244 324.301C382.875 327.308 383.498 326.466 383.843 326.241C393.251 321.648 397.824 326.199 396.945 329.099C396.06 331.998 397.723 331.859 397.985 331.8Z" fill="#6E000E"/>
<path d="M265.676 444.928C260.887 445.354 256.726 442.496 257.658 442.173C270.119 437.848 286.872 443.234 296.556 446.205C299.955 453.074 294.314 460.685 291.069 463.632C289.434 461.981 286.051 459.845 283.833 459.845C272.561 459.226 261.712 475.4 250.688 467.348C241.869 460.907 257.006 449.717 265.676 444.928Z" fill="#F4B88E"/>
<path d="M265.676 444.928C260.887 445.354 256.726 442.496 257.658 442.173C270.119 437.848 286.872 443.234 296.556 446.205C299.955 453.074 294.314 460.685 291.069 463.632C289.434 461.981 286.051 459.845 283.833 459.845C272.561 459.226 261.712 475.4 250.688 467.348C241.869 460.907 257.006 449.717 265.676 444.928Z" fill="#FCC4AC"/>
<path d="M351.069 401.86C352.239 423.495 348.693 460.759 345.997 479.721C343.146 486.867 282.471 464.617 284.083 460.315C285.696 456.013 289.734 449.708 291.728 444.644C293.096 441.17 328.019 457.537 329.31 451.666C330.602 445.795 331.596 412.802 351.069 401.86Z" fill="#307FE2"/>
<path d="M351.069 401.86C352.239 423.495 348.693 460.759 345.997 479.721C343.146 486.867 282.471 464.617 284.083 460.315C285.696 456.013 289.734 449.708 291.728 444.644C293.096 441.17 328.019 457.537 329.31 451.666C330.602 445.795 331.596 412.802 351.069 401.86Z" fill="url(#paint4_linear_1889_624)"/>
<path d="M351.069 401.86C352.239 423.495 348.693 460.759 345.997 479.721C343.146 486.867 282.471 464.617 284.083 460.315C285.696 456.013 289.734 449.708 291.728 444.644C293.096 441.17 328.019 457.537 329.31 451.666C330.602 445.795 331.596 412.802 351.069 401.86Z" fill="#2773D9"/>
<path opacity="0.35" fill-rule="evenodd" clip-rule="evenodd" d="M348.167 403.517C343.789 415.306 342.572 432.248 344.55 445.097C345.536 451.505 346.064 457.133 345.215 461.741C344.371 466.332 342.162 469.903 337.658 472.222C335.99 473.08 334.448 472.973 332.823 472.38C331.614 471.939 330.381 471.237 329.025 470.466C328.537 470.188 328.032 469.901 327.507 469.614C323.561 467.456 318.62 465.398 311.243 467.668C305.493 469.438 299.784 467.597 295.233 464.737C290.676 461.873 287.328 458.018 286.301 455.841L285.895 456.033C286.968 458.309 290.388 462.222 294.994 465.117C299.604 468.014 305.452 469.92 311.375 468.098C318.589 465.878 323.398 467.879 327.291 470.008C327.797 470.284 328.291 470.565 328.773 470.839C330.14 471.617 331.423 472.346 332.669 472.802C334.376 473.425 336.055 473.552 337.864 472.621C342.512 470.229 344.793 466.529 345.654 461.822C346.522 457.133 345.975 451.437 344.989 445.028C343.023 432.243 344.241 415.38 348.588 403.673L348.167 403.517ZM338.863 416.593C339.006 415.835 339.138 415.136 339.252 414.508L338.811 414.427C338.697 415.052 338.566 415.749 338.423 416.506C337.651 420.598 336.544 426.467 335.963 432.471C335.275 439.574 335.317 446.924 337.557 451.761C340.19 457.443 339.125 461.372 336.752 463.31C334.363 465.262 330.56 465.279 327.535 462.96C325.898 461.705 323.298 460.169 319.919 459.715C316.535 459.261 312.392 459.895 307.68 462.95C306.476 463.731 304.58 463.867 302.415 463.447C300.261 463.03 297.884 462.072 295.754 460.729C293.624 459.385 291.756 457.664 290.605 455.729C289.456 453.799 289.025 451.664 289.744 449.467L289.317 449.327C288.549 451.673 289.019 453.943 290.22 455.959C291.417 457.971 293.344 459.739 295.515 461.108C297.687 462.479 300.115 463.459 302.33 463.888C304.535 464.314 306.574 464.203 307.924 463.327C312.552 460.326 316.588 459.72 319.859 460.16C323.135 460.6 325.664 462.091 327.262 463.317C330.426 465.742 334.462 465.76 337.036 463.658C339.625 461.542 340.647 457.362 337.965 451.572C335.78 446.856 335.723 439.617 336.41 432.514C336.989 426.532 338.091 420.687 338.863 416.593Z" fill="white"/>
<path d="M291.728 444.644C289.734 449.709 285.696 456.013 284.083 460.315C283.807 461.052 285.358 462.315 288.132 463.867C292.586 460.569 296.437 449.948 297.805 445.05C294.42 444.134 292.064 443.792 291.728 444.644Z" fill="#105CC1"/>
<path d="M416.989 550.336C419.103 549.355 426.237 535.145 430.014 525.263L421.449 518.399C409.405 522.442 404.415 534.494 407.439 533.998C410.462 533.501 410.741 535.135 408.139 538.565C398.144 551.723 414.079 551.69 416.989 550.336Z" fill="#FCC4AC"/>
<path d="M455.303 476.638C460.631 459.075 443.312 418.281 430.014 407.643C430.014 411.986 429.182 432.086 428.731 458.773C436.363 472.448 417.547 514.048 415.789 517.557C414.025 521.066 429.396 534.182 431.908 529.107C434.421 524.032 449.311 496.386 455.303 476.638Z" fill="#307FE2"/>
<path d="M455.303 476.638C460.631 459.075 443.312 418.281 430.014 407.643C430.014 411.986 429.182 432.086 428.731 458.773C436.363 472.448 417.547 514.048 415.789 517.557C414.025 521.066 429.396 534.182 431.908 529.107C434.421 524.032 449.311 496.386 455.303 476.638Z" fill="url(#paint5_linear_1889_624)"/>
<path d="M455.303 476.638C460.631 459.075 443.312 418.281 430.014 407.643C430.014 411.986 429.182 432.086 428.731 458.773C436.363 472.448 417.547 514.048 415.789 517.557C414.025 521.066 429.396 534.182 431.908 529.107C434.421 524.032 449.311 496.386 455.303 476.638Z" fill="#2773D9"/>
<path opacity="0.35" fill-rule="evenodd" clip-rule="evenodd" d="M431.906 419.288C431.187 418.399 430.528 417.584 429.958 416.857L429.601 417.134C430.177 417.869 430.848 418.691 431.573 419.586C433.907 422.466 436.859 426.101 439.353 430.033C442.632 435.193 445.091 440.806 444.402 445.834C443.951 449.079 444.657 452.467 445.81 455.849C446.605 458.192 447.615 460.55 448.607 462.866C449.047 463.888 449.486 464.902 449.896 465.902C451.244 469.182 452.337 472.322 452.515 475.21C452.687 478.085 451.951 480.705 449.629 482.965C445.162 487.323 444.242 491.267 443.357 495.03C443.244 495.521 443.131 496.009 443.006 496.495C442.484 498.594 441.83 500.646 440.423 502.722C439.015 504.797 436.847 506.91 433.278 509.112C431.888 509.968 430.629 511.579 429.554 513.503C428.473 515.433 427.558 517.701 426.875 519.902C426.186 522.102 425.723 524.244 425.545 525.919C425.455 526.756 425.432 527.486 425.497 528.053C425.515 528.231 425.545 528.397 425.586 528.547C423.977 527.631 422.284 526.376 420.769 525.022C419.95 521.302 420.324 516.84 421.732 512.914C423.145 508.96 425.58 505.588 428.829 504.05C431.846 502.624 433.438 500.828 434.293 498.783C435.137 496.753 435.244 494.496 435.321 492.178C435.327 492.083 435.327 491.989 435.333 491.894C435.404 489.653 435.481 487.35 436.17 485.064C436.883 482.689 438.255 480.326 440.981 478.09C443.689 475.871 444.604 473.621 444.432 471.337C444.271 469.077 443.048 466.825 441.599 464.589C441.141 463.883 440.66 463.18 440.185 462.476C439.134 460.933 438.077 459.388 437.263 457.822C436.075 455.548 435.422 453.279 435.998 450.982C438.938 439.262 431.799 431.695 429.554 429.609L429.245 429.938C431.46 431.993 438.439 439.4 435.558 450.873C434.947 453.326 435.659 455.715 436.865 458.029C437.691 459.62 438.771 461.201 439.829 462.756C440.31 463.454 440.779 464.148 441.224 464.834C442.674 467.067 443.832 469.235 443.986 471.369C444.141 473.479 443.321 475.596 440.702 477.742C437.898 480.036 436.479 482.476 435.742 484.935C435.036 487.278 434.958 489.634 434.881 491.863C434.881 491.963 434.875 492.063 434.875 492.163C434.792 494.492 434.685 496.668 433.877 498.611C433.076 500.54 431.567 502.259 428.639 503.645C425.242 505.252 422.741 508.746 421.31 512.763C419.873 516.782 419.48 521.363 420.348 525.19L420.365 525.26L420.419 525.308C422.177 526.888 424.184 528.344 426.038 529.306L426.275 528.924C426.21 528.88 426.138 528.791 426.079 528.632C426.02 528.474 425.972 528.264 425.943 528.003C425.883 527.482 425.901 526.788 425.99 525.967C426.162 524.327 426.62 522.215 427.303 520.036C427.98 517.856 428.882 515.618 429.946 513.723C431.009 511.821 432.22 510.29 433.515 509.494C437.12 507.267 439.342 505.113 440.797 502.974C442.246 500.834 442.917 498.723 443.446 496.604C443.564 496.113 443.683 495.622 443.796 495.129C444.675 491.376 445.572 487.55 449.943 483.286C452.373 480.92 453.139 478.166 452.961 475.183C452.782 472.214 451.66 469.014 450.312 465.732C449.896 464.717 449.456 463.696 449.011 462.669C448.025 460.362 447.021 458.031 446.231 455.704C445.091 452.348 444.408 449.039 444.842 445.895C445.56 440.698 443.018 434.966 439.734 429.793C437.221 425.835 434.246 422.17 431.906 419.288Z" fill="white"/>
<path d="M424.188 496.783C428.916 483.135 433.044 466.499 428.732 458.773C440.314 466.894 431.517 485.063 424.188 496.783Z" fill="#105CC1"/>
<path d="M415.789 517.557C414.025 521.067 429.396 534.182 431.908 529.107C432.104 528.716 432.372 528.191 432.698 527.546C429.016 526.723 420.725 523.059 416.983 514.981C416.407 516.268 415.985 517.159 415.789 517.557Z" fill="#307FE2"/>
<path d="M415.789 517.557C414.025 521.067 429.396 534.182 431.908 529.107C432.104 528.716 432.372 528.191 432.698 527.546C429.016 526.723 420.725 523.059 416.983 514.981C416.407 516.268 415.985 517.159 415.789 517.557Z" fill="url(#paint6_linear_1889_624)"/>
<path d="M415.789 517.557C414.025 521.067 429.396 534.182 431.908 529.107C432.104 528.716 432.372 528.191 432.698 527.546C429.016 526.723 420.725 523.059 416.983 514.981C416.407 516.268 415.985 517.159 415.789 517.557Z" fill="#105CC1"/>
<path d="M306.638 355.476H229.784C226.389 355.476 223.637 358.228 223.637 361.623V379.045C223.637 382.439 226.389 385.192 229.784 385.192H292.415L311.586 391.423L306.314 385.192H306.638C310.032 385.192 312.784 382.439 312.784 379.045V361.623C312.784 358.228 310.032 355.476 306.638 355.476Z" fill="#8BBAFA"/>
<path fill-rule="evenodd" clip-rule="evenodd" d="M244.246 372.731C245.834 372.731 247.122 371.443 247.122 369.855C247.122 368.267 245.834 366.979 244.246 366.979C242.658 366.979 241.371 368.267 241.371 369.855C241.371 371.443 242.658 372.731 244.246 372.731ZM260.542 372.731C262.13 372.731 263.418 371.443 263.418 369.855C263.418 368.267 262.13 366.979 260.542 366.979C258.954 366.979 257.666 368.267 257.666 369.855C257.666 371.443 258.954 372.731 260.542 372.731ZM279.234 369.855C279.234 371.443 277.947 372.731 276.358 372.731C274.77 372.731 273.483 371.443 273.483 369.855C273.483 368.267 274.77 366.979 276.358 366.979C277.947 366.979 279.234 368.267 279.234 369.855ZM292.175 372.731C293.763 372.731 295.051 371.443 295.051 369.855C295.051 368.267 293.763 366.979 292.175 366.979C290.587 366.979 289.299 368.267 289.299 369.855C289.299 371.443 290.587 372.731 292.175 372.731Z" fill="white"/>
<defs>
<filter id="filter0_d_1889_624" x="0" y="0.810547" width="311.318" height="311.318" filterUnits="userSpaceOnUse" color-interpolation-filters="sRGB">
<feFlood flood-opacity="0" result="BackgroundImageFix"/>
<feColorMatrix in="SourceAlpha" type="matrix" values="0 0 0 0 0 0 0 0 0 0 0 0 0 0 0 0 0 0 127 0" result="hardAlpha"/>
<feOffset dy="-17"/>
<feGaussianBlur stdDeviation="29"/>
<feColorMatrix type="matrix" values="0 0 0 0 0.696557 0 0 0 0 0.836898 0 0 0 0 0.818186 0 0 0 0.05 0"/>
<feBlend mode="normal" in2="BackgroundImageFix" result="effect1_dropShadow_1889_624"/>
<feBlend mode="normal" in="SourceGraphic" in2="effect1_dropShadow_1889_624" result="shape"/>
</filter>
<linearGradient id="paint0_linear_1889_624" x1="544.728" y1="99.7986" x2="548.601" y2="123.683" gradientUnits="userSpaceOnUse">
<stop stop-color="#F4AF8A"/>
<stop offset="1" stop-color="#F9C0A1" stop-opacity="0"/>
</linearGradient>
<linearGradient id="paint1_linear_1889_624" x1="380.268" y1="386.231" x2="389.961" y2="391.182" gradientUnits="userSpaceOnUse">
<stop stop-color="#F3AD8F"/>
<stop offset="1" stop-color="#FCC4AC" stop-opacity="0"/>
</linearGradient>
<linearGradient id="paint2_linear_1889_624" x1="415.613" y1="515.894" x2="391.369" y2="503.494" gradientUnits="userSpaceOnUse">
<stop stop-color="#026CF0"/>
<stop offset="1" stop-color="#307FE2" stop-opacity="0"/>
</linearGradient>
<linearGradient id="paint3_linear_1889_624" x1="359.041" y1="365.394" x2="378.136" y2="367.53" gradientUnits="userSpaceOnUse">
<stop stop-color="#FEA568"/>
<stop offset="1" stop-color="#F4B88E"/>
</linearGradient>
<linearGradient id="paint4_linear_1889_624" x1="323.668" y1="479.827" x2="324.922" y2="469.44" gradientUnits="userSpaceOnUse">
<stop stop-color="#0154F7"/>
<stop offset="1" stop-color="#307FE2" stop-opacity="0"/>
</linearGradient>
<linearGradient id="paint5_linear_1889_624" x1="454.317" y1="480.232" x2="445.67" y2="476.582" gradientUnits="userSpaceOnUse">
<stop stop-color="#0071FF"/>
<stop offset="1" stop-color="#307FE2" stop-opacity="0"/>
</linearGradient>
<linearGradient id="paint6_linear_1889_624" x1="454.317" y1="480.233" x2="445.67" y2="476.582" gradientUnits="userSpaceOnUse">
<stop stop-color="#0071FF"/>
<stop offset="1" stop-color="#307FE2" stop-opacity="0"/>
</linearGradient>
</defs>
</svg>
