<svg width="106" height="107" viewBox="0 0 106 107" fill="none" xmlns="http://www.w3.org/2000/svg">
<g filter="url(#filter0_d_1889_777)">
<rect x="20" y="10.4473" width="66" height="66" rx="24" fill="url(#paint0_linear_1889_777)"/>
</g>
<path d="M44.2891 34.3089L46.4393 36.4591C46.5736 35.6976 46.9768 34.9809 47.5592 34.4433C48.9926 33.0994 51.322 33.0546 52.7555 34.3985C52.8451 34.4881 52.9347 34.5777 53.0242 34.6673C53.6066 35.3392 53.965 36.1903 53.965 37.0863C53.965 37.2654 53.965 37.4446 53.9202 37.579C53.8306 38.4301 53.4722 39.1917 52.8451 39.8188C52.3075 40.3564 51.6356 40.7147 50.874 40.8491L53.0242 42.9993L55.6224 40.4012C55.6672 40.3564 55.6672 40.3564 55.712 40.3564C55.712 40.3564 55.712 40.3564 55.7568 40.3564C55.8016 40.3564 55.8016 40.3564 55.8464 40.3564C55.8912 40.3564 55.936 40.3564 55.936 40.3564C56.0256 40.4012 56.1152 40.4907 56.1152 40.6251C56.1152 41.4763 56.4735 42.2378 57.0559 42.8201C57.683 43.4473 58.4893 43.7608 59.3404 43.7608C59.3404 43.7608 59.3404 43.7608 59.3852 43.7608C59.654 43.7608 59.878 43.716 60.1468 43.6712C60.7291 43.5369 61.2667 43.2233 61.6698 42.7753C62.3866 41.969 62.6553 40.8939 62.4314 39.8636C62.297 39.3261 62.0282 38.8333 61.6698 38.4301C61.4459 38.2062 61.1771 37.9822 60.9083 37.8478C60.6395 37.7134 60.3708 37.6238 60.102 37.5342C59.9676 37.4894 59.8332 37.4894 59.6988 37.4446C59.6092 37.4446 59.4748 37.4446 59.3852 37.4446C59.2509 37.4446 59.1613 37.355 59.1165 37.2654C59.0717 37.1759 59.1165 37.0415 59.1613 36.9519L61.7594 34.3537L54.5025 27.052C53.6962 26.2457 52.3523 26.2457 51.546 27.052L44.2891 34.3089Z" fill="white"/>
<path d="M69.4177 41.9688L62.1608 34.7119L60.0106 36.8621C60.7721 36.9965 61.4888 37.3997 62.0264 37.9372C63.3703 39.3707 63.415 41.7001 62.0712 43.1335C61.3544 43.8951 60.4137 44.343 59.3834 44.343C58.3531 44.3878 57.3676 43.9846 56.6509 43.2231C56.1133 42.6856 55.755 42.0136 55.6206 41.2521L53.4256 43.4471L56.0237 46.0452C56.1133 46.1348 56.1133 46.2692 56.0685 46.3588C56.0237 46.4484 55.9342 46.538 55.7998 46.538C54.9486 46.538 54.1871 46.8964 53.6048 47.4787C52.9776 48.1059 52.6641 48.9122 52.6641 49.8081C52.6641 50.6592 53.0224 51.4655 53.6944 52.0927C53.8735 52.2719 54.0975 52.451 54.3663 52.5406C55.531 53.1678 57.054 52.9886 58.0844 52.0479C58.7115 51.4655 59.0699 50.6592 59.0699 49.8081C59.0699 49.6737 59.1595 49.5841 59.249 49.5393C59.3386 49.4945 59.473 49.5393 59.5626 49.5841L62.1608 52.1823L69.4177 44.9254C69.8208 44.5222 70.0448 43.9846 70.0448 43.4471C70.0448 42.8647 69.8208 42.372 69.4177 41.9688Z" fill="white"/>
<path d="M59.6074 50.4355C59.473 51.197 59.0699 51.9138 58.4875 52.4513C57.0541 53.7952 54.7247 53.84 53.2912 52.4961C52.5297 51.7794 52.0817 50.8387 52.0817 49.8084C52.0817 49.0468 52.3057 48.2853 52.7089 47.6582C52.8432 47.4342 53.0224 47.255 53.2016 47.0758C53.7392 46.5383 54.4111 46.1799 55.1726 46.0455L53.0224 43.8505L50.4243 46.4487C50.3347 46.5831 50.2003 46.5831 50.1107 46.5383C50.0211 46.4935 49.9315 46.4039 49.9315 46.2695C49.9315 45.4184 49.5732 44.6568 48.9908 44.0745C48.3637 43.4474 47.5573 43.1338 46.6614 43.1338C46.5718 43.1338 46.4375 43.1338 46.3479 43.1338C45.5863 43.2234 44.9144 43.5817 44.3768 44.1193C43.5257 45.0152 43.3465 46.3591 43.7497 47.479C43.7497 47.5238 43.7945 47.5686 43.7945 47.6134C43.7945 47.6582 43.8393 47.703 43.8393 47.7478C43.9737 48.0165 44.1529 48.2853 44.3768 48.5093C44.9592 49.1364 45.7655 49.4948 46.6166 49.4948C46.751 49.4948 46.8406 49.5844 46.8854 49.674C46.9302 49.7636 46.8854 49.898 46.8406 49.9875L44.2425 52.5857L51.4994 59.8426C52.3057 60.6489 53.6496 60.6489 54.4559 59.8426L61.7128 52.5857L59.6074 50.4355Z" fill="white"/>
<path d="M36.6271 44.9257L43.8841 52.1826L46.0343 50.0324C45.2727 49.898 44.556 49.4948 44.0184 48.9125C42.6746 47.479 42.6298 45.1496 43.9736 43.7162C44.6904 42.9546 45.6311 42.5067 46.6614 42.5067C47.6917 42.5067 48.6772 42.8651 49.3939 43.6266C49.9315 44.1641 50.2899 44.8361 50.4242 45.5976L52.5744 43.4474L49.9763 40.8492C49.8867 40.7597 49.8867 40.6253 49.9315 40.5357C49.9763 40.4461 50.0659 40.3565 50.2003 40.3565C51.0514 40.3565 51.8129 39.9981 52.3953 39.4158C52.4848 39.3262 52.5296 39.2366 52.6192 39.1918C53.112 38.6095 53.336 37.8927 53.336 37.1312C53.336 36.2801 52.9776 35.4738 52.3057 34.8466C51.0962 33.7267 49.1252 33.7267 47.9605 34.8914C47.3333 35.4738 46.975 36.2801 46.975 37.1312C46.975 37.2656 46.8854 37.3552 46.7958 37.4C46.7062 37.4448 46.5718 37.4 46.4822 37.3552L43.8841 34.757L36.6271 41.9691C36.224 42.3723 36 42.8651 36 43.4474C36 44.0297 36.224 44.5225 36.6271 44.9257Z" fill="white"/>
<defs>
<filter id="filter0_d_1889_777" x="0" y="0.447266" width="106" height="106" filterUnits="userSpaceOnUse" color-interpolation-filters="sRGB">
<feFlood flood-opacity="0" result="BackgroundImageFix"/>
<feColorMatrix in="SourceAlpha" type="matrix" values="0 0 0 0 0 0 0 0 0 0 0 0 0 0 0 0 0 0 127 0" result="hardAlpha"/>
<feMorphology radius="2" operator="erode" in="SourceAlpha" result="effect1_dropShadow_1889_777"/>
<feOffset dy="10"/>
<feGaussianBlur stdDeviation="11"/>
<feColorMatrix type="matrix" values="0 0 0 0 0.427083 0 0 0 0 0.671455 0 0 0 0 1 0 0 0 0.36 0"/>
<feBlend mode="normal" in2="BackgroundImageFix" result="effect1_dropShadow_1889_777"/>
<feBlend mode="normal" in="SourceGraphic" in2="effect1_dropShadow_1889_777" result="shape"/>
</filter>
<linearGradient id="paint0_linear_1889_777" x1="33.5" y1="10.4473" x2="65" y2="76.4473" gradientUnits="userSpaceOnUse">
<stop stop-color="#5CA1FE"/>
<stop offset="1" stop-color="#217BF4"/>
</linearGradient>
</defs>
</svg>
