<svg width="36" height="37" viewBox="0 0 36 37" fill="none" xmlns="http://www.w3.org/2000/svg">
<circle cx="18" cy="18.4473" r="18" fill="white"/>
<path d="M17.9542 10.7012C20.475 10.7012 20.75 10.7012 21.7583 10.747C22.675 10.7929 23.1792 10.9304 23.5 11.0679C23.9125 11.2054 24.2792 11.4804 24.6 11.7554C24.9208 12.0762 25.15 12.4429 25.2875 12.8554C25.425 13.1762 25.5625 13.6804 25.6083 14.597C25.6542 15.6054 25.6542 15.8804 25.6542 18.4012C25.6542 20.922 25.6542 21.197 25.6083 22.2054C25.5625 23.122 25.425 23.6262 25.2875 23.947C24.9667 24.772 24.325 25.4137 23.5 25.7345C23.1792 25.872 22.675 26.0095 21.7583 26.0554C20.75 26.1012 20.475 26.1012 17.9542 26.1012C15.4333 26.1012 15.1583 26.1012 14.15 26.0554C13.2333 26.0095 12.7292 25.872 12.4083 25.7345C11.9958 25.597 11.6292 25.322 11.3083 25.047C10.9875 24.7262 10.7583 24.3595 10.6208 23.947C10.4833 23.6262 10.3458 23.122 10.3 22.2054C10.2542 21.197 10.2542 20.922 10.2542 18.4012C10.2542 15.8804 10.2542 15.6054 10.3 14.597C10.3458 13.6804 10.4833 13.1762 10.6208 12.8554C10.7583 12.4429 11.0333 12.0762 11.3083 11.7554C11.6292 11.4345 11.9958 11.2054 12.4083 11.0679C12.7292 10.9304 13.2333 10.7929 14.15 10.747C15.1583 10.7012 15.4792 10.7012 17.9542 10.7012ZM17.9542 9.00537C15.3875 9.00537 15.0667 9.00537 14.0583 9.0512C13.05 9.09704 12.3625 9.23454 11.7667 9.50954C11.1708 9.7387 10.6208 10.1054 10.1625 10.5637C9.70418 11.022 9.29168 11.6179 9.06252 12.2137C8.83335 12.8095 8.65002 13.497 8.60418 14.5054C8.55835 15.5137 8.55835 15.8345 8.55835 18.4012C8.55835 20.9679 8.55835 21.2887 8.60418 22.297C8.65002 23.3054 8.78752 23.9929 9.06252 24.5887C9.29168 25.1845 9.65835 25.7804 10.1625 26.2387C10.6208 26.697 11.2167 27.1095 11.8125 27.3387C12.4083 27.5679 13.0958 27.7512 14.1042 27.797C15.1125 27.8429 15.4333 27.8429 18 27.8429C20.5667 27.8429 20.8875 27.8429 21.8958 27.797C22.9042 27.7512 23.5917 27.6137 24.1875 27.3387C25.4708 26.8345 26.4333 25.872 26.9375 24.5887C27.1667 23.9929 27.35 23.3054 27.3958 22.297C27.4417 21.2887 27.4417 20.9679 27.4417 18.4012C27.4417 15.8345 27.4417 15.5137 27.3958 14.5054C27.35 13.497 27.2125 12.8095 26.9375 12.2137C26.7083 11.572 26.3417 11.022 25.8375 10.5637C25.3792 10.1054 24.7833 9.69287 24.1875 9.4637C23.5917 9.23454 22.9042 9.0512 21.8958 9.00537C20.8417 9.00537 20.5208 9.00537 17.9542 9.00537Z" fill="#2B2B39"/>
<path d="M17.9529 13.5889C15.2945 13.5889 13.1404 15.743 13.1404 18.4014C13.1404 21.0597 15.2945 23.2139 17.9529 23.2139C20.6112 23.2139 22.7654 21.0597 22.7654 18.4014C22.8112 15.743 20.6571 13.5889 17.9529 13.5889ZM17.9529 21.5639C16.2112 21.5639 14.8362 20.143 14.8362 18.4472C14.8362 16.7055 16.257 15.3305 17.9529 15.3305C19.6946 15.3305 21.0696 16.7514 21.0696 18.4472C21.1154 20.143 19.6946 21.5639 17.9529 21.5639Z" fill="#2B2B39"/>
<path d="M22.9972 14.5514C23.63 14.5514 24.143 14.0384 24.143 13.4056C24.143 12.7728 23.63 12.2598 22.9972 12.2598C22.3643 12.2598 21.8513 12.7728 21.8513 13.4056C21.8513 14.0384 22.3643 14.5514 22.9972 14.5514Z" fill="#2B2B39"/>
</svg>
