<svg width="36" height="37" viewBox="0 0 36 37" fill="none" xmlns="http://www.w3.org/2000/svg">
<circle cx="18" cy="18.4473" r="18" fill="white"/>
<path d="M11.5678 14.0445C12.6755 14.0445 13.5735 13.1466 13.5735 12.0389C13.5735 10.9312 12.6755 10.0332 11.5678 10.0332C10.4601 10.0332 9.56213 10.9312 9.56213 12.0389C9.56213 13.1466 10.4601 14.0445 11.5678 14.0445Z" fill="#2B2B39"/>
<path d="M15.4661 15.5646V26.692H18.921V21.1892C18.921 19.7372 19.1942 18.3311 20.9945 18.3311C22.7701 18.3311 22.7921 19.9911 22.7921 21.2809V26.6929H26.2489V20.5906C26.2489 17.5931 25.6035 15.2896 22.1 15.2896C20.4179 15.2896 19.2904 16.2126 18.8294 17.0862H18.7826V15.5646H15.4661ZM9.83594 15.5646H13.2964V26.692H9.83594V15.5646Z" fill="#2B2B39"/>
</svg>
