<svg width="36" height="37" viewBox="0 0 36 37" fill="none" xmlns="http://www.w3.org/2000/svg">
<circle cx="18" cy="18.4473" r="18" fill="white"/>
<path d="M25.7627 12.578C26.623 12.0624 27.2836 11.2458 27.5947 10.273C26.7897 10.7504 25.898 11.0971 24.9489 11.284C24.1889 10.4743 23.1061 9.96826 21.9078 9.96826C19.6067 9.96826 17.7412 11.8337 17.7412 14.1346C17.7412 14.4612 17.7781 14.7792 17.8491 15.0841C14.3864 14.9103 11.3163 13.2516 9.2614 10.7309C8.90276 11.3463 8.6973 12.062 8.6973 12.8255C8.6973 14.271 9.43292 15.5463 10.5509 16.2934C9.86784 16.2718 9.22545 16.0844 8.66365 15.7723C8.66335 15.7897 8.66335 15.8072 8.66335 15.8247C8.66335 17.8434 10.0995 19.5274 12.0055 19.9101C11.6559 20.0053 11.2878 20.0562 10.9078 20.0562C10.6393 20.0562 10.3783 20.0301 10.124 19.9815C10.6541 21.6368 12.1928 22.8413 14.016 22.875C12.5901 23.9924 10.7935 24.6585 8.84155 24.6585C8.50528 24.6585 8.17361 24.6388 7.84766 24.6003C9.69149 25.7825 11.8816 26.4722 14.2345 26.4722C21.898 26.4722 26.0887 20.1235 26.0887 14.6177C26.0887 14.4371 26.0847 14.2574 26.0767 14.0788C26.8907 13.4913 27.5971 12.7575 28.1557 11.922C27.4085 12.2533 26.6055 12.4773 25.7627 12.578Z" fill="#2B2B39"/>
</svg>
